<svg width="31" height="31" viewBox="0 0 31 31" fill="none" xmlns="http://www.w3.org/2000/svg">
<path d="M5.71744 26.351L3.54163 1.9375H27.4581L25.2794 26.3471L15.4853 29.0625L5.71744 26.351Z" fill="#1572B6"/>
<path d="M15.5 26.9874L23.4147 24.7932L25.2766 3.93408H15.5V26.9874Z" fill="#33A9DC"/>
<path d="M15.5 12.7788H19.4622L19.7354 9.71267H15.5V6.71826H23.0078L22.9361 7.52136L22.2008 15.7732H15.5V12.7788Z" fill="white"/>
<path d="M15.5186 20.5548L15.505 20.5587L12.1706 19.6577L11.9574 17.2698H8.95142L9.37089 21.9711L15.504 23.6742L15.5186 23.6703V20.5548Z" fill="#EBEBEB"/>
<path d="M19.2073 15.6462L18.847 19.6559L15.5077 20.5568V23.6723L21.6457 21.9712L21.6912 21.4655L22.2114 15.6462H19.2073Z" fill="white"/>
<path d="M15.5107 6.71826V9.71267H8.27799L8.21792 9.03939L8.08133 7.52136L8.00964 6.71826H15.5107Z" fill="#EBEBEB"/>
<path d="M15.5001 12.7788V15.7732H12.2073L12.1473 15.0999L12.0116 13.5819L11.9399 12.7788H15.5001Z" fill="#EBEBEB"/>
</svg>
