<svg width="150" height="150" viewBox="0 0 150 150" fill="none" xmlns="http://www.w3.org/2000/svg">
<path d="M27.8438 3.5C28.7239 2.40235 29.8166 1.52111 31.0466 0.916911C32.2765 0.312716 33.6146 -9.50066e-05 34.9688 2.16448e-08H115.031C116.385 -9.50066e-05 117.723 0.312716 118.953 0.916911C120.183 1.52111 121.276 2.40235 122.156 3.5L146.616 33.94C148.799 36.6583 150 40.1201 150 43.7V46.25C150.001 51.1998 148.551 56.026 145.855 60.0542C143.158 64.0824 139.349 67.1113 134.959 68.7174C130.57 70.3236 125.82 70.4268 121.373 69.0127C116.926 67.5986 113.004 64.7377 110.156 60.83C108.076 63.6877 105.411 65.9998 102.364 67.5892C99.3172 69.1786 95.9698 70.0033 92.5781 70C89.1863 70.004 85.8387 69.1797 82.7917 67.5902C79.7448 66.0007 77.0795 63.6882 75 60.83C72.9205 63.6882 70.2552 66.0007 67.2083 67.5902C64.1613 69.1797 60.8137 70.004 57.4219 70C54.0301 70.004 50.6824 69.1797 47.6355 67.5902C44.5885 66.0007 41.9232 63.6882 39.8438 60.83C36.9955 64.7377 33.0739 67.5986 28.6269 69.0127C24.1799 70.4268 19.4298 70.3236 15.0405 68.7174C10.6512 67.1113 6.84209 64.0824 4.14546 60.0542C1.44883 56.026 -0.000511862 51.1998 1.35605e-07 46.25V43.7C0.000118196 40.1201 1.20053 36.6583 3.38438 33.94L27.8531 3.49L27.8438 3.5ZM44.5312 46.25C44.5312 49.8967 45.8894 53.3941 48.3068 55.9727C50.7243 58.5513 54.0031 60 57.4219 60C60.8407 60 64.1195 58.5513 66.5369 55.9727C68.9544 53.3941 70.3125 49.8967 70.3125 46.25C70.3125 44.9239 70.8064 43.6521 71.6854 42.7145C72.5645 41.7768 73.7568 41.25 75 41.25C76.2432 41.25 77.4355 41.7768 78.3146 42.7145C79.1936 43.6521 79.6875 44.9239 79.6875 46.25C79.6875 49.8967 81.0456 53.3941 83.4631 55.9727C85.8805 58.5513 89.1593 60 92.5781 60C95.9969 60 99.2757 58.5513 101.693 55.9727C104.111 53.3941 105.469 49.8967 105.469 46.25C105.469 44.9239 105.963 43.6521 106.842 42.7145C107.721 41.7768 108.913 41.25 110.156 41.25C111.399 41.25 112.592 41.7768 113.471 42.7145C114.35 43.6521 114.844 44.9239 114.844 46.25C114.844 49.8967 116.202 53.3941 118.619 55.9727C121.037 58.5513 124.316 60 127.734 60C131.153 60 134.432 58.5513 136.849 55.9727C139.267 53.3941 140.625 49.8967 140.625 46.25V43.7C140.625 42.5083 140.226 41.3557 139.5 40.45L115.031 10H34.9688L10.5 40.45C9.77388 41.3557 9.37491 42.5083 9.375 43.7V46.25C9.375 49.8967 10.7331 53.3941 13.1506 55.9727C15.568 58.5513 18.8468 60 22.2656 60C25.6844 60 28.9632 58.5513 31.3807 55.9727C33.7981 53.3941 35.1562 49.8967 35.1562 46.25C35.1562 44.9239 35.6501 43.6521 36.5292 42.7145C37.4083 41.7768 38.6005 41.25 39.8438 41.25C41.087 41.25 42.2792 41.7768 43.1583 42.7145C44.0374 43.6521 44.5312 44.9239 44.5312 46.25ZM14.0625 75C15.3057 75 16.498 75.5268 17.3771 76.4645C18.2561 77.4021 18.75 78.6739 18.75 80V140H28.125V90C28.125 87.3478 29.1127 84.8043 30.8709 82.9289C32.629 81.0536 35.0136 80 37.5 80H65.625C68.1114 80 70.496 81.0536 72.2541 82.9289C74.0123 84.8043 75 87.3478 75 90V140H131.25V80C131.25 78.6739 131.744 77.4021 132.623 76.4645C133.502 75.5268 134.694 75 135.938 75C137.181 75 138.373 75.5268 139.252 76.4645C140.131 77.4021 140.625 78.6739 140.625 80V140H145.312C146.556 140 147.748 140.527 148.627 141.464C149.506 142.402 150 143.674 150 145C150 146.326 149.506 147.598 148.627 148.536C147.748 149.473 146.556 150 145.312 150H4.6875C3.4443 150 2.25201 149.473 1.37294 148.536C0.49386 147.598 1.35605e-07 146.326 1.35605e-07 145C1.35605e-07 143.674 0.49386 142.402 1.37294 141.464C2.25201 140.527 3.4443 140 4.6875 140H9.375V80C9.375 78.6739 9.86886 77.4021 10.7479 76.4645C11.627 75.5268 12.8193 75 14.0625 75ZM37.5 140H65.625V90H37.5V140ZM84.375 90C84.375 87.3478 85.3627 84.8043 87.1209 82.9289C88.879 81.0536 91.2636 80 93.75 80H112.5C114.986 80 117.371 81.0536 119.129 82.9289C120.887 84.8043 121.875 87.3478 121.875 90V120C121.875 122.652 120.887 125.196 119.129 127.071C117.371 128.946 114.986 130 112.5 130H93.75C91.2636 130 88.879 128.946 87.1209 127.071C85.3627 125.196 84.375 122.652 84.375 120V90ZM112.5 90H93.75V120H112.5V90Z" fill="black" fill-opacity="0.1"/>
</svg>
