<svg width="128" height="37" viewBox="0 0 128 37" fill="none" xmlns="http://www.w3.org/2000/svg">
<path d="M0.833 28.7132V14.5636H18.619V13.7359H0.833V0.827409H19.7435V0H0V29.5406H19.91V28.7132H0.83325H0.833ZM35.9468 8.27459L28.5742 17.9147L21.368 8.27484H20.285L28.0742 18.5355L19.535 29.5404H20.5347L28.5737 19.1556L36.6545 29.5404H37.6958L29.1152 18.535L36.946 8.27434H35.9465L35.9468 8.27459ZM40.1953 36.8224V23.5832H40.2785C40.7785 25.5139 41.7643 27.0654 43.236 28.2377C44.7077 29.4098 46.582 29.9961 48.859 29.9961C50.3307 29.9961 51.636 29.6996 52.7745 29.1066C53.913 28.5136 54.864 27.7068 55.6278 26.6862C56.3913 25.6656 56.9745 24.4796 57.3773 23.128C57.7798 21.7766 57.9813 20.356 57.9813 18.8668C57.9813 17.2668 57.7728 15.7911 57.3563 14.4397C56.9398 13.0881 56.3357 11.9157 55.5445 10.9229C54.753 9.9299 53.795 9.15738 52.6702 8.6061C51.5457 8.05433 50.2752 7.77844 48.859 7.77844C47.776 7.77844 46.7695 7.93712 45.8392 8.25423C44.909 8.57158 44.083 9.01956 43.361 9.59889C42.6348 10.1827 42.0026 10.8733 41.4865 11.6468C40.959 12.433 40.5562 13.2949 40.2785 14.2328H40.1953V8.27459H39.3623V36.8224H40.1953ZM48.859 29.2096C46.249 29.2096 44.1522 28.3201 42.5695 26.5412C40.9868 24.7622 40.1953 22.2037 40.1953 18.8663C40.1953 17.4871 40.3898 16.1769 40.7785 14.9358C41.1672 13.6947 41.7295 12.6051 42.4652 11.6674C43.2012 10.7295 44.1108 9.98478 45.1935 9.43326C46.2765 8.88149 47.4985 8.6056 48.859 8.6056C50.2475 8.6056 51.4625 8.88149 52.5037 9.43326C53.545 9.98478 54.406 10.7365 55.0863 11.688C55.7665 12.6396 56.2802 13.7292 56.6275 14.9564C56.9745 16.1839 57.148 17.4871 57.148 18.8663C57.148 20.1076 56.9885 21.342 56.669 22.5693C56.3498 23.7967 55.8568 24.9 55.1903 25.8794C54.524 26.8583 53.6702 27.6581 52.6287 28.2789C51.5872 28.8995 50.3307 29.2096 48.859 29.2096ZM62.563 29.5406V17.501C62.563 16.3426 62.7295 15.2115 63.063 14.1084C63.396 13.0051 63.9097 12.0327 64.604 11.1916C65.2982 10.3503 66.1797 9.68829 67.249 9.20555C68.318 8.72281 69.5885 8.52291 71.0602 8.6056V7.77819C69.7828 7.75088 68.6653 7.88845 67.7073 8.1919C66.749 8.49535 65.923 8.90905 65.2288 9.43326C64.5345 9.95722 63.9793 10.5708 63.5628 11.2743C63.1466 11.9767 62.8377 12.7366 62.6463 13.5291H62.563V8.27459H61.73V29.5409H62.563V29.5406ZM72.1015 19.0731H90.0123C90.068 17.6113 89.9222 16.2048 89.575 14.8531C89.228 13.5015 88.6725 12.3016 87.909 11.2537C87.1452 10.2055 86.1595 9.36423 84.9515 8.72976C83.7435 8.0953 82.3065 7.77819 80.6405 7.77819C79.4463 7.77819 78.28 8.02652 77.1415 8.52316C76.003 9.01956 75.0033 9.74342 74.1425 10.695C73.2818 11.6466 72.5875 12.8119 72.06 14.1914C71.5325 15.5703 71.2685 17.1424 71.2685 18.9077C71.2685 20.4799 71.449 21.9487 71.81 23.314C72.171 24.6792 72.7262 25.8655 73.476 26.8722C74.226 27.8789 75.191 28.6581 76.371 29.2096C77.551 29.7614 78.9743 30.0234 80.6405 29.9958C83.084 29.9958 85.139 29.3129 86.805 27.9479C88.4713 26.5824 89.457 24.6586 89.7625 22.1762H88.9295C88.5685 24.5208 87.645 26.2792 86.1595 27.4513C84.6738 28.6236 82.8065 29.2096 80.557 29.2096C79.0297 29.2096 77.7385 28.9477 76.6833 28.4237C75.6283 27.8997 74.7673 27.1823 74.1008 26.2722C73.4345 25.3619 72.9415 24.2931 72.6223 23.0656C72.3027 21.8384 72.1292 20.5074 72.1015 19.0731ZM89.1793 18.2457H72.1018C72.1848 16.7563 72.4625 15.4186 72.9345 14.2326C73.4068 13.0463 74.0245 12.0327 74.7883 11.1916C75.5518 10.3503 76.4405 9.70915 77.454 9.26763C78.4675 8.82636 79.5575 8.6056 80.7237 8.6056C82.1122 8.6056 83.3338 8.86088 84.3893 9.37118C85.4443 9.88148 86.326 10.578 87.0342 11.4606C87.7422 12.3431 88.2767 13.3707 88.6377 14.5427C88.9987 15.7151 89.1793 16.9495 89.1793 18.2457ZM107.299 14.5636H108.132C108.132 12.1914 107.437 10.4675 106.049 9.39179C104.66 8.31606 102.772 7.77819 100.384 7.77819C99.051 7.77819 97.9265 7.94383 97.01 8.27484C96.0938 8.6056 95.344 9.03321 94.7607 9.55717C94.1777 10.0811 93.7613 10.6605 93.5113 11.2949C93.2613 11.9294 93.1363 12.5363 93.1363 13.1154C93.1363 14.2738 93.3445 15.1978 93.7613 15.8874C94.1777 16.577 94.8303 17.1149 95.7188 17.501C96.3298 17.7766 97.0238 18.025 97.8015 18.246C98.579 18.4665 99.4815 18.7009 100.509 18.949C101.425 19.17 102.328 19.3905 103.216 19.611C104.105 19.8318 104.889 20.1282 105.57 20.5005C106.25 20.873 106.806 21.3488 107.236 21.9281C107.666 22.5072 107.882 23.2658 107.882 24.2035C107.882 25.1138 107.666 25.8861 107.236 26.5203C106.809 27.1515 106.247 27.6813 105.591 28.0721C104.924 28.4719 104.181 28.7614 103.362 28.9407C102.543 29.12 101.745 29.2096 100.967 29.2096C98.4402 29.2096 96.5033 28.6512 95.1565 27.5342C93.8098 26.417 93.1365 24.6586 93.1365 22.2589H92.3033C92.3033 24.9345 93.0322 26.8928 94.49 28.1342C95.948 29.3753 98.107 29.9958 100.967 29.9958C101.883 29.9958 102.807 29.8923 103.737 29.6854C104.667 29.4786 105.501 29.1409 106.236 28.6718C106.966 28.2093 107.579 27.5866 108.027 26.8516C108.486 26.1066 108.715 25.1965 108.715 24.1208C108.715 23.1002 108.513 22.2728 108.111 21.6383C107.708 21.0041 107.18 20.4799 106.528 20.0662C105.875 19.6525 105.14 19.3284 104.32 19.094C103.496 18.8582 102.67 18.6305 101.842 18.4111C100.822 18.1454 99.8017 17.8834 98.7803 17.6252C97.9058 17.4044 97.0935 17.1424 96.3438 16.839C95.6217 16.5355 95.0455 16.1012 94.615 15.5358C94.1845 14.9703 93.9695 14.1635 93.9695 13.1154C93.9695 12.9224 94.025 12.5775 94.136 12.0811C94.247 11.5845 94.511 11.0811 94.9275 10.5708C95.344 10.0608 95.9825 9.6056 96.8435 9.20555C97.7042 8.80575 98.8845 8.6056 100.384 8.6056C101.411 8.6056 102.349 8.71611 103.196 8.93662C104.043 9.15738 104.771 9.509 105.382 9.99174C105.993 10.4745 106.465 11.0881 106.799 11.8328C107.132 12.5778 107.299 13.4879 107.299 14.5636ZM126.584 14.5636H127.417C127.417 12.1914 126.723 10.4675 125.334 9.39179C123.946 8.31606 122.058 7.77819 119.669 7.77819C118.337 7.77819 117.212 7.94383 116.296 8.27484C115.379 8.6056 114.629 9.03321 114.046 9.55717C113.463 10.0811 113.047 10.6605 112.797 11.2949C112.547 11.9294 112.422 12.5363 112.422 13.1154C112.422 14.2738 112.63 15.1978 113.047 15.8874C113.463 16.577 114.116 17.1149 115.004 17.501C115.615 17.7766 116.309 18.025 117.087 18.246C117.864 18.4665 118.767 18.7009 119.794 18.949C120.711 19.17 121.613 19.3905 122.502 19.611C123.39 19.8318 124.175 20.1282 124.855 20.5005C125.535 20.873 126.091 21.3488 126.521 21.9281C126.952 22.5072 127.167 23.2658 127.167 24.2035C127.167 25.1138 126.952 25.8861 126.521 26.5203C126.094 27.1514 125.533 27.6813 124.876 28.0721C124.21 28.4719 123.467 28.7614 122.647 28.9407C121.828 29.12 121.03 29.2096 120.253 29.2096C117.726 29.2096 115.789 28.6512 114.442 27.5342C113.095 26.417 112.422 24.6586 112.422 22.2589H111.589C111.589 24.9345 112.317 26.8928 113.775 28.1342C115.233 29.3753 117.392 29.9958 120.253 29.9958C121.169 29.9958 122.092 29.8923 123.022 29.6854C123.952 29.4786 124.786 29.1409 125.522 28.6718C126.251 28.2093 126.864 27.5866 127.313 26.8516C127.771 26.1066 128 25.1965 128 24.1208C128 23.1002 127.799 22.2728 127.396 21.6383C126.994 21.0041 126.466 20.4799 125.813 20.0662C125.161 19.6525 124.425 19.3284 123.606 19.094C122.782 18.8582 121.956 18.6305 121.127 18.4111C120.108 18.1454 119.087 17.8834 118.066 17.6252C117.191 17.4044 116.379 17.1424 115.629 16.839C114.907 16.5355 114.331 16.1012 113.9 15.5358C113.47 14.9703 113.255 14.1635 113.255 13.1154C113.255 12.9224 113.31 12.5775 113.422 12.0811C113.533 11.5845 113.797 11.0811 114.213 10.5708C114.629 10.0608 115.268 9.6056 116.129 9.20555C116.99 8.80575 118.17 8.6056 119.67 8.6056C120.697 8.6056 121.634 8.71611 122.481 8.93662C123.328 9.15738 124.057 9.509 124.668 9.99174C125.279 10.4745 125.751 11.0881 126.084 11.8328C126.417 12.5778 126.584 13.4879 126.584 14.5636H126.584Z" fill="#D4D4D5"/>
</svg>
