<svg width="597" height="328" viewBox="0 0 597 328" fill="none" xmlns="http://www.w3.org/2000/svg">
<path d="M76.9102 234.905H475.693V7.13746C475.691 5.43089 475.003 3.79479 473.78 2.58808C472.557 1.38137 470.898 0.702607 469.168 0.700684H83.4348C81.705 0.702607 80.0466 1.38137 78.8234 2.58808C77.6002 3.79479 76.9122 5.43089 76.9102 7.13746V234.905Z" fill="#35363B"/>
<path d="M463.372 9.60321H89.231V219.154H463.372V9.60321Z" fill="#27292E"/>
<path d="M76.563 228.742V256.848C76.563 258.013 76.7956 259.167 77.2475 260.244C77.6995 261.32 78.362 262.298 79.1971 263.122C80.0323 263.946 81.0237 264.6 82.1149 265.046C83.206 265.492 84.3755 265.721 85.5566 265.721H232.744V321.19H230.789C230.636 321.19 230.484 321.22 230.342 321.278C230.2 321.336 230.071 321.421 229.963 321.528C229.854 321.635 229.768 321.762 229.71 321.902C229.651 322.042 229.621 322.192 229.621 322.343V326.201C229.621 326.353 229.651 326.502 229.71 326.642C229.768 326.782 229.854 326.909 229.963 327.016C230.071 327.123 230.2 327.208 230.342 327.266C230.484 327.324 230.636 327.354 230.789 327.354H322.161C322.315 327.354 322.466 327.324 322.608 327.266C322.75 327.208 322.879 327.123 322.987 327.016C323.096 326.909 323.182 326.782 323.241 326.642C323.299 326.502 323.329 326.353 323.329 326.201V322.343C323.329 322.192 323.299 322.042 323.241 321.902C323.182 321.762 323.096 321.635 322.987 321.528C322.879 321.421 322.75 321.336 322.608 321.278C322.466 321.22 322.315 321.191 322.161 321.191H320.206V265.721H467.393C468.575 265.721 469.744 265.492 470.835 265.046C471.926 264.6 472.918 263.946 473.753 263.122C474.588 262.298 475.251 261.32 475.703 260.244C476.155 259.167 476.387 258.014 476.387 256.848V228.742L76.563 228.742Z" fill="#35363B"/>
<path d="M205.571 113.234H114.396C113.76 113.233 113.151 112.984 112.702 112.541C112.252 112.098 112 111.497 111.999 110.87V74.372C112 73.7452 112.252 73.1442 112.702 72.701C113.151 72.2578 113.76 72.0084 114.396 72.0077H205.571C206.206 72.0084 206.816 72.2577 207.265 72.701C207.714 73.1442 207.967 73.7451 207.968 74.372V110.87C207.967 111.497 207.714 112.098 207.265 112.541C206.816 112.984 206.206 113.233 205.571 113.234V113.234Z" fill="#35363B"/>
<path d="M196.889 130.742H123.077C122.314 130.742 121.583 130.443 121.043 129.911C120.504 129.379 120.201 128.658 120.201 127.905C120.201 127.153 120.504 126.431 121.043 125.899C121.583 125.367 122.314 125.068 123.077 125.068H196.889C200.598 125.017 200.635 130.794 196.889 130.742Z" fill="#07AAF5"/>
<path d="M196.889 143.746H123.077C122.314 143.746 121.583 143.447 121.043 142.915C120.504 142.383 120.201 141.661 120.201 140.909C120.201 140.156 120.504 139.435 121.043 138.902C121.583 138.37 122.314 138.072 123.077 138.072H196.889C200.598 138.02 200.635 143.797 196.889 143.746Z" fill="#D4D4D5"/>
<path d="M196.889 156.675H123.077C122.314 156.675 121.583 156.376 121.043 155.844C120.504 155.312 120.201 154.59 120.201 153.837C120.201 153.085 120.504 152.363 121.043 151.831C121.583 151.299 122.314 151 123.077 151H196.889C200.598 150.949 200.635 156.726 196.889 156.675Z" fill="#D4D4D5"/>
<path d="M321.889 113.234H230.714C230.079 113.233 229.469 112.984 229.02 112.541C228.571 112.098 228.318 111.497 228.317 110.87V74.372C228.318 73.7452 228.571 73.1442 229.02 72.701C229.469 72.2577 230.079 72.0084 230.714 72.0077H321.889C322.525 72.0084 323.134 72.2577 323.583 72.701C324.032 73.1442 324.285 73.7451 324.286 74.372V110.87C324.285 111.497 324.032 112.098 323.583 112.541C323.134 112.984 322.525 113.233 321.889 113.234V113.234Z" fill="#35363B"/>
<path d="M313.208 130.742H239.395C238.633 130.742 237.901 130.443 237.362 129.911C236.823 129.379 236.52 128.658 236.52 127.905C236.52 127.153 236.823 126.431 237.362 125.899C237.901 125.367 238.633 125.068 239.395 125.068H313.208C316.916 125.017 316.953 130.794 313.208 130.742Z" fill="#07AAF5"/>
<path d="M313.208 143.746H239.395C238.633 143.746 237.901 143.447 237.362 142.915C236.823 142.383 236.52 141.661 236.52 140.909C236.52 140.156 236.823 139.435 237.362 138.902C237.901 138.37 238.633 138.072 239.395 138.072H313.208C316.916 138.02 316.953 143.797 313.208 143.746Z" fill="#D4D4D5"/>
<path d="M313.208 156.749H239.395C238.633 156.749 237.901 156.45 237.362 155.918C236.823 155.386 236.52 154.665 236.52 153.912C236.52 153.16 236.823 152.438 237.362 151.906C237.901 151.374 238.633 151.075 239.395 151.075H313.208C316.916 151.024 316.953 156.801 313.208 156.749Z" fill="#D4D4D5"/>
<path d="M438.208 113.234H347.033C346.397 113.233 345.788 112.984 345.339 112.541C344.89 112.098 344.637 111.497 344.636 110.87V74.372C344.637 73.7452 344.89 73.1442 345.339 72.701C345.788 72.2577 346.397 72.0084 347.033 72.0077H438.208C438.844 72.0084 439.453 72.2577 439.902 72.701C440.351 73.1442 440.604 73.7451 440.605 74.372V110.87C440.604 111.497 440.351 112.098 439.902 112.541C439.453 112.984 438.844 113.233 438.208 113.234V113.234Z" fill="#35363B"/>
<path d="M429.526 130.742H355.714C354.951 130.742 354.22 130.443 353.681 129.911C353.141 129.379 352.838 128.658 352.838 127.905C352.838 127.153 353.141 126.431 353.681 125.899C354.22 125.367 354.951 125.068 355.714 125.068H429.526C433.235 125.017 433.272 130.794 429.526 130.742Z" fill="#07AAF5"/>
<path d="M429.527 143.746H355.714C354.952 143.745 354.222 143.445 353.684 142.913C353.146 142.381 352.843 141.66 352.843 140.909C352.843 140.157 353.146 139.436 353.684 138.904C354.222 138.372 354.952 138.073 355.714 138.072H429.527C433.235 138.02 433.272 143.797 429.527 143.746Z" fill="#D4D4D5"/>
<path d="M429.526 156.749H355.714C354.951 156.749 354.22 156.45 353.681 155.918C353.141 155.386 352.838 154.665 352.838 153.912C352.838 153.16 353.141 152.438 353.681 151.906C354.22 151.374 354.951 151.075 355.714 151.075H429.526C433.235 151.024 433.272 156.801 429.526 156.749Z" fill="#D4D4D5"/>
<rect x="386" y="164" width="13" height="6" rx="3" fill="#F44459"/>
<path d="M594.007 72.5005L594.256 118.247L595.272 118.191L596.238 135.128L594.351 135.229L594.404 145.404L595.914 145.375L596.22 162.326L594.5 162.357L595.319 311.637C595.337 315.546 593.782 319.302 590.996 322.081C588.209 324.86 584.419 326.435 580.457 326.46L413.31 327.353C409.348 327.372 405.54 325.838 402.723 323.089C399.906 320.34 398.31 316.6 398.285 312.691L396.972 73.555C396.955 69.6462 398.509 65.8901 401.296 63.1111C404.082 60.332 407.872 58.7572 411.834 58.732L578.982 57.8384C582.943 57.8223 586.75 59.3568 589.566 62.1053C592.383 64.8539 593.98 68.5922 594.007 72.5005V72.5005Z" fill="#35363B"/>
<path d="M580.7 317.055L412.964 317.953C411.743 317.958 410.569 317.485 409.701 316.638C408.833 315.79 408.341 314.638 408.333 313.433L407.009 72.7067C407.004 71.5018 407.484 70.3442 408.342 69.4876C409.201 68.631 410.369 68.1456 411.591 68.1377L579.326 67.2403C580.548 67.2351 581.721 67.7081 582.589 68.5554C583.458 69.4027 583.95 70.5552 583.958 71.76L585.281 312.486C585.286 313.691 584.807 314.849 583.948 315.705C583.089 316.562 581.921 317.047 580.7 317.055V317.055Z" fill="#27292E"/>
<rect x="490" y="190" width="13" height="6" rx="3" fill="#F44459"/>
<rect x="490" y="302" width="13" height="6" rx="3" fill="#F44459"/>
<path d="M494.796 64.0556C495.498 64.0556 496.067 63.4941 496.067 62.8015C496.067 62.1088 495.498 61.5474 494.796 61.5474C494.094 61.5474 493.525 62.1088 493.525 62.8015C493.525 63.4941 494.094 64.0556 494.796 64.0556Z" fill="#27292E"/>
<path d="M544.685 134.997H447.605C446.928 134.996 446.28 134.731 445.801 134.259C445.323 133.787 445.054 133.147 445.053 132.479V93.618C445.054 92.9506 445.323 92.3107 445.801 91.8388C446.28 91.3668 446.928 91.1014 447.605 91.1006H544.685C545.362 91.1014 546.01 91.3668 546.489 91.8388C546.967 92.3107 547.236 92.9506 547.237 93.618V132.479C547.236 133.147 546.967 133.787 546.489 134.259C546.01 134.731 545.362 134.996 544.685 134.997V134.997Z" fill="#35363B"/>
<path d="M535.442 153.639H456.849C456.037 153.639 455.258 153.321 454.684 152.754C454.11 152.188 453.787 151.419 453.787 150.618C453.787 149.817 454.11 149.048 454.684 148.482C455.258 147.915 456.037 147.597 456.849 147.597H535.442C539.39 147.543 539.43 153.694 535.442 153.639Z" fill="#07AAF5"/>
<path d="M535.442 167.485H456.849C456.038 167.483 455.26 167.164 454.687 166.598C454.114 166.032 453.792 165.264 453.792 164.464C453.792 163.663 454.114 162.896 454.687 162.329C455.26 161.763 456.038 161.444 456.849 161.443H535.442C539.39 161.388 539.43 167.54 535.442 167.485Z" fill="#D4D4D5"/>
<path d="M535.442 181.33H456.849C456.037 181.33 455.258 181.012 454.684 180.446C454.11 179.879 453.787 179.111 453.787 178.309C453.787 177.508 454.11 176.74 454.684 176.173C455.258 175.607 456.037 175.289 456.849 175.289H535.442C539.39 175.234 539.43 181.385 535.442 181.33Z" fill="#D4D4D5"/>
<path d="M544.685 247.758H447.605C446.928 247.758 446.28 247.492 445.801 247.02C445.323 246.548 445.054 245.908 445.053 245.241V206.38C445.054 205.712 445.323 205.072 445.801 204.601C446.28 204.129 446.928 203.863 447.605 203.862H544.685C545.362 203.863 546.01 204.129 546.489 204.6C546.967 205.072 547.236 205.712 547.237 206.38V245.241C547.236 245.908 546.967 246.548 546.489 247.02C546.01 247.492 545.362 247.758 544.685 247.758V247.758Z" fill="#35363B"/>
<path d="M535.442 266.401H456.849C456.037 266.401 455.258 266.082 454.684 265.516C454.11 264.949 453.787 264.181 453.787 263.38C453.787 262.579 454.11 261.81 454.684 261.244C455.258 260.677 456.037 260.359 456.849 260.359H535.442C539.39 260.304 539.43 266.456 535.442 266.401Z" fill="#07AAF5"/>
<path d="M535.442 280.246H456.849C456.038 280.245 455.26 279.926 454.687 279.36C454.114 278.793 453.792 278.026 453.792 277.225C453.792 276.425 454.114 275.657 454.687 275.091C455.26 274.525 456.038 274.206 456.849 274.205H535.442C539.39 274.15 539.43 280.301 535.442 280.246Z" fill="#D4D4D5"/>
<path d="M535.442 294.092H456.849C456.037 294.092 455.258 293.774 454.684 293.207C454.11 292.641 453.787 291.872 453.787 291.071C453.787 290.27 454.11 289.502 454.684 288.935C455.258 288.368 456.037 288.05 456.849 288.05H535.442C539.39 287.996 539.43 294.147 535.442 294.092Z" fill="#D4D4D5"/>
<path d="M113.346 315.607L113.023 183.771L114.241 183.768L114.182 159.52L112.964 159.524L112.865 119.046C112.861 117.534 112.555 116.038 111.966 114.643C111.376 113.247 110.513 111.98 109.427 110.914C108.341 109.847 107.052 109.003 105.635 108.427C104.218 107.852 102.7 107.558 101.168 107.562L14.3308 107.769C12.7984 107.772 11.2817 108.073 9.86732 108.655C8.45296 109.237 7.16863 110.088 6.08764 111.16C5.00665 112.231 4.15018 113.502 3.56713 114.9C2.98408 116.299 2.68587 117.796 2.68953 119.308L2.75862 147.531L0.818359 147.579L1.24691 164.532L2.80019 164.494L2.80938 168.235L1.1564 168.276L1.58495 185.229L2.85093 185.198L3.17097 315.869C3.1718 317.382 3.47533 318.879 4.06415 320.276C4.65297 321.672 5.51551 322.941 6.60226 324.008C7.68901 325.075 8.9786 325.919 10.3971 326.494C11.8155 327.068 13.3349 327.36 14.8682 327.354L101.705 327.147C104.798 327.136 107.761 325.915 109.944 323.751C112.126 321.588 113.35 318.659 113.346 315.607Z" fill="#35363B"/>
<path d="M12.2124 322.078C11.1295 321.694 10.1925 320.99 9.52902 320.063C8.8655 319.135 8.50757 318.029 8.50386 316.893L8.01759 118.258C8.01417 116.795 8.5999 115.391 9.64594 114.354C10.692 113.317 12.1127 112.732 13.5956 112.729L32.0717 112.685L31.8429 113.241C31.446 114.208 31.2962 115.256 31.4066 116.293C31.517 117.33 31.8842 118.324 32.4758 119.188C33.0675 120.052 33.8654 120.759 34.7994 121.247C35.7334 121.736 36.7747 121.99 37.8317 121.987L78.8357 121.889C79.8564 121.802 80.8418 121.478 81.7121 120.945C82.5825 120.412 83.3135 119.684 83.8458 118.82C84.3705 117.971 84.6843 117.012 84.7617 116.021C84.839 115.03 84.6778 114.035 84.291 113.117L84.0595 112.561L103.144 112.515C104.627 112.514 106.049 113.092 107.1 114.124C108.151 115.155 108.744 116.556 108.749 118.019L109.214 307.533C109.219 311.414 107.663 315.138 104.888 317.889C102.113 320.639 98.3459 322.192 94.4124 322.205L14.1089 322.397C13.4628 322.399 12.8212 322.291 12.2124 322.078V322.078Z" fill="#27292E"/>
<path d="M43.8464 117.393C44.5485 117.393 45.1176 116.831 45.1176 116.139C45.1176 115.446 44.5485 114.885 43.8464 114.885C43.1443 114.885 42.5752 115.446 42.5752 116.139C42.5752 116.831 43.1443 117.393 43.8464 117.393Z" fill="#27292E"/>
<path d="M92.9863 178.44H27.0129C26.5531 178.439 26.1124 178.259 25.7873 177.938C25.4622 177.617 25.2793 177.182 25.2788 176.729V150.32C25.2793 149.866 25.4622 149.431 25.7873 149.11C26.1124 148.79 26.5531 148.609 27.0129 148.609H92.9863C93.4461 148.609 93.8868 148.79 94.2119 149.11C94.537 149.431 94.7199 149.866 94.7204 150.32V176.729C94.7199 177.182 94.537 177.617 94.2119 177.938C93.8868 178.259 93.4461 178.439 92.9863 178.44V178.44Z" fill="#35363B"/>
<path d="M86.7046 191.108H33.295C33.0214 191.109 32.7503 191.056 32.4974 190.953C32.2444 190.85 32.0146 190.699 31.8209 190.508C31.6272 190.318 31.4736 190.091 31.3687 189.842C31.2639 189.593 31.21 189.325 31.21 189.055C31.21 188.785 31.2639 188.518 31.3687 188.269C31.4736 188.019 31.6272 187.793 31.8209 187.602C32.0146 187.412 32.2444 187.26 32.4974 187.158C32.7503 187.055 33.0214 187.002 33.295 187.002H86.7046C89.3881 186.965 89.415 191.146 86.7046 191.108Z" fill="#07AAF5"/>
<path d="M86.7044 200.518H33.2948C32.7429 200.518 32.2136 200.301 31.8233 199.916C31.4331 199.531 31.2139 199.009 31.2139 198.465C31.2139 197.92 31.4331 197.398 31.8233 197.013C32.2136 196.628 32.7429 196.412 33.2948 196.412H86.7044C89.3879 196.375 89.4148 200.555 86.7044 200.518Z" fill="#D4D4D5"/>
<path d="M86.7046 209.927H33.295C33.0214 209.927 32.7503 209.875 32.4974 209.772C32.2444 209.669 32.0146 209.518 31.8209 209.327C31.6272 209.136 31.4736 208.91 31.3687 208.66C31.2639 208.411 31.21 208.144 31.21 207.874C31.21 207.604 31.2639 207.337 31.3687 207.087C31.4736 206.838 31.6272 206.611 31.8209 206.421C32.0146 206.23 32.2444 206.079 32.4974 205.976C32.7503 205.873 33.0214 205.82 33.295 205.821H86.7046C89.3881 205.784 89.415 209.964 86.7046 209.927Z" fill="#D4D4D5"/>
<path d="M92.9863 257.579H27.0129C26.5531 257.579 26.1124 257.398 25.7873 257.078C25.4622 256.757 25.2793 256.322 25.2788 255.868V229.459C25.2793 229.006 25.4622 228.571 25.7873 228.25C26.1124 227.929 26.5531 227.749 27.0129 227.748H92.9863C93.4461 227.749 93.8868 227.929 94.2119 228.25C94.537 228.571 94.7199 229.006 94.7204 229.459V255.868C94.7199 256.322 94.537 256.757 94.2119 257.078C93.8868 257.398 93.4461 257.579 92.9863 257.579Z" fill="#35363B"/>
<path d="M86.7046 270.248H33.295C33.0214 270.248 32.7503 270.196 32.4974 270.093C32.2444 269.99 32.0146 269.839 31.8209 269.648C31.6272 269.457 31.4736 269.231 31.3687 268.982C31.2639 268.732 31.21 268.465 31.21 268.195C31.21 267.925 31.2639 267.658 31.3687 267.408C31.4736 267.159 31.6272 266.933 31.8209 266.742C32.0146 266.551 32.2444 266.4 32.4974 266.297C32.7503 266.194 33.0214 266.142 33.295 266.142H86.7046C89.3881 266.105 89.415 270.285 86.7046 270.248Z" fill="#07AAF5"/>
<path d="M86.7044 279.657H33.2948C32.7429 279.657 32.2136 279.441 31.8233 279.056C31.4331 278.671 31.2139 278.149 31.2139 277.604C31.2139 277.06 31.4331 276.538 31.8233 276.153C32.2136 275.768 32.7429 275.551 33.2948 275.551H86.7044C89.3879 275.514 89.4148 279.694 86.7044 279.657Z" fill="#D4D4D5"/>
<path d="M86.7046 289.066H33.295C33.0214 289.067 32.7503 289.014 32.4974 288.911C32.2444 288.808 32.0146 288.657 31.8209 288.467C31.6272 288.276 31.4736 288.049 31.3687 287.8C31.2639 287.551 31.21 287.283 31.21 287.014C31.21 286.744 31.2639 286.476 31.3687 286.227C31.4736 285.978 31.6272 285.751 31.8209 285.56C32.0146 285.37 32.2444 285.219 32.4974 285.116C32.7503 285.013 33.0214 284.96 33.295 284.961H86.7046C89.3881 284.924 89.415 289.104 86.7046 289.066Z" fill="#D4D4D5"/>
<rect x="153" y="164" width="13" height="6" rx="3" fill="#F44459"/>
<rect x="53" y="215" width="13" height="4" rx="2" fill="#F44459"/>
<rect x="53" y="294" width="13" height="4" rx="2" fill="#F44459"/>
<rect x="269" y="164" width="13" height="6" rx="3" fill="#F44459"/>
</svg>
