<svg width="312" height="174" viewBox="0 0 312 174" fill="none" xmlns="http://www.w3.org/2000/svg">
<path d="M60.5432 137.101H218.437V46.8244C218.436 46.148 218.164 45.4995 217.679 45.0212C217.195 44.543 216.539 44.2739 215.854 44.2732H63.1266C62.4417 44.2739 61.7851 44.543 61.3007 45.0212C60.8164 45.4995 60.544 46.148 60.5432 46.8244V137.101Z" fill="#35363B"/>
<path d="M213.558 47.8017H65.4214V130.858H213.558V47.8017Z" fill="#27292E"/>
<path d="M60.4058 134.658V145.799C60.4058 146.26 60.4979 146.718 60.6768 147.144C60.8558 147.571 61.1181 147.959 61.4487 148.285C61.7794 148.612 62.1719 148.871 62.604 149.048C63.036 149.224 63.4991 149.315 63.9667 149.315H122.244V171.301H121.47C121.409 171.301 121.349 171.313 121.293 171.336C121.237 171.359 121.186 171.392 121.143 171.435C121.1 171.477 121.066 171.528 121.042 171.583C121.019 171.638 121.007 171.698 121.007 171.758V173.287C121.007 173.347 121.019 173.406 121.042 173.462C121.066 173.517 121.1 173.568 121.143 173.61C121.186 173.652 121.237 173.686 121.293 173.709C121.349 173.732 121.409 173.744 121.47 173.744H157.648C157.708 173.744 157.769 173.732 157.825 173.709C157.881 173.686 157.932 173.652 157.975 173.61C158.018 173.568 158.052 173.517 158.075 173.462C158.098 173.406 158.11 173.347 158.11 173.287V171.758C158.11 171.698 158.098 171.638 158.075 171.583C158.052 171.528 158.018 171.477 157.975 171.435C157.932 171.392 157.881 171.359 157.825 171.336C157.769 171.313 157.708 171.301 157.648 171.301H156.873V149.315H215.151C215.618 149.315 216.081 149.224 216.514 149.048C216.946 148.871 217.338 148.612 217.669 148.285C217.999 147.959 218.262 147.571 218.441 147.144C218.62 146.718 218.712 146.26 218.712 145.799V134.658L60.4058 134.658Z" fill="#35363B"/>
<path d="M111.485 88.8763H75.3849C75.1333 88.876 74.8922 88.7772 74.7143 88.6016C74.5364 88.4259 74.4363 88.1877 74.436 87.9392V73.4732C74.4363 73.2247 74.5364 72.9865 74.7143 72.8109C74.8922 72.6352 75.1333 72.5364 75.3849 72.5361H111.485C111.736 72.5364 111.978 72.6352 112.156 72.8109C112.333 72.9865 112.433 73.2247 112.434 73.4732V87.9392C112.433 88.1877 112.333 88.4259 112.156 88.6016C111.978 88.7772 111.736 88.8761 111.485 88.8763Z" fill="#35363B"/>
<path d="M108.047 95.8158H78.8222C78.5202 95.8158 78.2306 95.6973 78.0171 95.4864C77.8035 95.2756 77.6836 94.9895 77.6836 94.6913C77.6836 94.3931 77.8035 94.107 78.0171 93.8961C78.2306 93.6853 78.5202 93.5668 78.8222 93.5668H108.047C109.516 93.5465 109.531 95.8362 108.047 95.8158Z" fill="#07AAF5"/>
<path d="M108.047 100.97H78.8222C78.5203 100.97 78.2306 100.851 78.0171 100.64C77.8036 100.43 77.6836 100.144 77.6836 99.8453C77.6836 99.5471 77.8036 99.261 78.0171 99.0501C78.2306 98.8393 78.5203 98.7208 78.8222 98.7208H108.047C109.516 98.7005 109.531 100.99 108.047 100.97Z" fill="#D4D4D5"/>
<path d="M108.047 106.094H78.8222C78.5203 106.094 78.2306 105.976 78.0171 105.765C77.8036 105.554 77.6836 105.268 77.6836 104.97C77.6836 104.672 77.8036 104.385 78.0171 104.175C78.2306 103.964 78.5203 103.845 78.8222 103.845H108.047C109.516 103.825 109.531 106.115 108.047 106.094Z" fill="#D4D4D5"/>
<path d="M157.54 88.8763H121.44C121.189 88.876 120.947 88.7772 120.769 88.6016C120.592 88.4259 120.492 88.1877 120.491 87.9392V73.4732C120.492 73.2247 120.592 72.9865 120.769 72.8109C120.947 72.6352 121.189 72.5364 121.44 72.5361H157.54C157.792 72.5364 158.033 72.6352 158.211 72.8109C158.389 72.9865 158.489 73.2247 158.489 73.4732V87.9392C158.489 88.1877 158.389 88.4259 158.211 88.6016C158.033 88.7772 157.792 88.8761 157.54 88.8763Z" fill="#35363B"/>
<path d="M154.103 95.8158H124.877C124.575 95.8158 124.286 95.6973 124.072 95.4864C123.859 95.2756 123.739 94.9895 123.739 94.6913C123.739 94.3931 123.859 94.107 124.072 93.8961C124.286 93.6853 124.575 93.5668 124.877 93.5668H154.103C155.571 93.5465 155.586 95.8362 154.103 95.8158Z" fill="#07AAF5"/>
<path d="M154.103 100.97H124.877C124.575 100.97 124.286 100.851 124.072 100.64C123.859 100.43 123.739 100.144 123.739 99.8453C123.739 99.5471 123.859 99.261 124.072 99.0501C124.286 98.8393 124.575 98.7208 124.877 98.7208H154.103C155.571 98.7005 155.586 100.99 154.103 100.97Z" fill="#D4D4D5"/>
<path d="M154.103 106.124H124.877C124.575 106.124 124.286 106.005 124.072 105.795C123.859 105.584 123.739 105.298 123.739 104.999C123.739 104.701 123.859 104.415 124.072 104.204C124.286 103.993 124.575 103.875 124.877 103.875H154.103C155.571 103.855 155.586 106.144 154.103 106.124Z" fill="#D4D4D5"/>
<path d="M203.595 88.8763H167.495C167.244 88.876 167.003 88.7772 166.825 88.6016C166.647 88.4259 166.547 88.1877 166.546 87.9392V73.4732C166.547 73.2247 166.647 72.9865 166.825 72.8109C167.003 72.6352 167.244 72.5364 167.495 72.5361H203.595C203.847 72.5364 204.088 72.6352 204.266 72.8109C204.444 72.9865 204.544 73.2247 204.544 73.4732V87.9392C204.544 88.1877 204.444 88.4259 204.266 88.6016C204.088 88.7772 203.847 88.8761 203.595 88.8763Z" fill="#35363B"/>
<path d="M200.158 95.8158H170.933C170.631 95.8158 170.341 95.6973 170.127 95.4864C169.914 95.2756 169.794 94.9895 169.794 94.6913C169.794 94.3931 169.914 94.107 170.127 93.8961C170.341 93.6853 170.631 93.5668 170.933 93.5668H200.158C201.626 93.5465 201.641 95.8362 200.158 95.8158Z" fill="#07AAF5"/>
<path d="M200.158 100.97H170.933C170.631 100.969 170.342 100.851 170.129 100.64C169.916 100.429 169.796 100.143 169.796 99.8453C169.796 99.5474 169.916 99.2616 170.129 99.0508C170.342 98.84 170.631 98.7213 170.933 98.7208H200.158C201.626 98.7005 201.641 100.99 200.158 100.97Z" fill="#D4D4D5"/>
<path d="M200.158 106.124H170.933C170.631 106.124 170.341 106.005 170.127 105.795C169.914 105.584 169.794 105.298 169.794 104.999C169.794 104.701 169.914 104.415 170.127 104.204C170.341 103.993 170.631 103.875 170.933 103.875H200.158C201.626 103.855 201.641 106.144 200.158 106.124Z" fill="#D4D4D5"/>
<rect x="182.924" y="108.998" width="5.14719" height="2.37813" rx="1.18906" fill="#F44459"/>
<path d="M265.282 72.7314L265.381 90.8634L265.783 90.841L266.165 97.5539L265.418 97.5943L265.439 101.627L266.037 101.616L266.158 108.334L265.477 108.347L265.802 167.514C265.809 169.064 265.193 170.552 264.09 171.654C262.987 172.755 261.486 173.38 259.917 173.39L193.737 173.744C192.168 173.751 190.661 173.143 189.545 172.053C188.43 170.964 187.798 169.482 187.788 167.932L187.268 73.1493C187.261 71.6001 187.877 70.1113 188.98 69.0098C190.083 67.9084 191.584 67.2841 193.153 67.2742L259.333 66.92C260.902 66.9136 262.409 67.5218 263.524 68.6112C264.639 69.7006 265.271 71.1823 265.282 72.7314Z" fill="#35363B"/>
<path d="M260.013 169.662L193.6 170.018C193.116 170.02 192.652 169.832 192.308 169.496C191.964 169.161 191.769 168.704 191.766 168.226L191.242 72.8131C191.24 72.3356 191.43 71.8767 191.77 71.5372C192.11 71.1977 192.573 71.0053 193.056 71.0022L259.469 70.6465C259.953 70.6445 260.417 70.8319 260.761 71.1678C261.105 71.5036 261.3 71.9604 261.303 72.4379L261.827 167.851C261.829 168.329 261.639 168.787 261.299 169.127C260.959 169.466 260.496 169.659 260.013 169.662Z" fill="#27292E"/>
<rect x="224.102" y="119.303" width="5.14719" height="2.37813" rx="1.18906" fill="#F44459"/>
<rect x="224.102" y="163.695" width="5.14719" height="2.37813" rx="1.18906" fill="#F44459"/>
<path d="M226 69.3842C226.278 69.3842 226.504 69.1616 226.504 68.8871C226.504 68.6126 226.278 68.39 226 68.39C225.722 68.39 225.497 68.6126 225.497 68.8871C225.497 69.1616 225.722 69.3842 226 69.3842Z" fill="#27292E"/>
<path d="M245.754 97.5022H207.316C207.048 97.5019 206.791 97.3967 206.602 97.2096C206.412 97.0225 206.306 96.7689 206.305 96.5044V81.1015C206.306 80.8369 206.412 80.5833 206.602 80.3963C206.791 80.2092 207.048 80.104 207.316 80.1037H245.754C246.021 80.104 246.278 80.2092 246.468 80.3963C246.657 80.5833 246.764 80.8369 246.764 81.1015V96.5044C246.764 96.7689 246.657 97.0226 246.468 97.2096C246.278 97.3967 246.021 97.5019 245.754 97.5022Z" fill="#35363B"/>
<path d="M242.093 104.891H210.976C210.654 104.891 210.346 104.765 210.118 104.54C209.891 104.316 209.763 104.011 209.763 103.694C209.763 103.376 209.891 103.072 210.118 102.847C210.346 102.623 210.654 102.496 210.976 102.496H242.093C243.657 102.475 243.673 104.913 242.093 104.891Z" fill="#07AAF5"/>
<path d="M242.093 110.379H210.976C210.654 110.378 210.346 110.252 210.12 110.027C209.893 109.803 209.765 109.499 209.765 109.181C209.765 108.864 209.893 108.56 210.12 108.336C210.346 108.111 210.654 107.985 210.976 107.984H242.093C243.657 107.963 243.673 110.401 242.093 110.379Z" fill="#D4D4D5"/>
<path d="M242.093 115.867H210.976C210.654 115.867 210.346 115.741 210.118 115.516C209.891 115.291 209.763 114.987 209.763 114.669C209.763 114.352 209.891 114.047 210.118 113.823C210.346 113.598 210.654 113.472 210.976 113.472H242.093C243.657 113.45 243.673 115.888 242.093 115.867Z" fill="#D4D4D5"/>
<path d="M245.754 142.196H207.316C207.048 142.196 206.791 142.09 206.602 141.903C206.412 141.716 206.306 141.463 206.305 141.198V125.795C206.306 125.531 206.412 125.277 206.602 125.09C206.791 124.903 207.048 124.798 207.316 124.797H245.754C246.021 124.798 246.278 124.903 246.468 125.09C246.657 125.277 246.764 125.531 246.764 125.795V141.198C246.764 141.463 246.657 141.716 246.468 141.903C246.278 142.09 246.021 142.196 245.754 142.196Z" fill="#35363B"/>
<path d="M242.093 149.585H210.976C210.654 149.585 210.346 149.459 210.118 149.234C209.891 149.01 209.763 148.705 209.763 148.387C209.763 148.07 209.891 147.765 210.118 147.541C210.346 147.316 210.654 147.19 210.976 147.19H242.093C243.657 147.168 243.673 149.606 242.093 149.585Z" fill="#07AAF5"/>
<path d="M242.093 155.073H210.976C210.654 155.072 210.346 154.946 210.12 154.721C209.893 154.497 209.765 154.192 209.765 153.875C209.765 153.558 209.893 153.254 210.12 153.029C210.346 152.805 210.654 152.678 210.976 152.678H242.093C243.657 152.656 243.673 155.094 242.093 155.073Z" fill="#D4D4D5"/>
<path d="M242.093 160.56H210.976C210.654 160.56 210.346 160.434 210.118 160.21C209.891 159.985 209.763 159.681 209.763 159.363C209.763 159.045 209.891 158.741 210.118 158.516C210.346 158.292 210.654 158.166 210.976 158.166H242.093C243.657 158.144 243.673 160.582 242.093 160.56Z" fill="#D4D4D5"/>
<path d="M74.9694 169.088L74.8415 116.834L75.3238 116.833L75.3006 107.222L74.8182 107.224L74.7787 91.1799C74.7773 90.5807 74.6563 89.9877 74.4228 89.4346C74.1893 88.8816 73.8477 88.3794 73.4177 87.9567C72.9876 87.534 72.4775 87.1992 71.9164 86.9712C71.3553 86.7432 70.7542 86.6266 70.1475 86.6281L35.7654 86.71C35.1586 86.7115 34.5581 86.8309 33.9981 87.0615C33.4381 87.2922 32.9296 87.6295 32.5016 88.0542C32.0736 88.4789 31.7345 88.9827 31.5036 89.5368C31.2728 90.091 31.1547 90.6846 31.1562 91.2838L31.1835 102.47L30.4153 102.489L30.585 109.209L31.2 109.194L31.2036 110.676L30.5491 110.692L30.7188 117.412L31.2201 117.4L31.3468 169.192C31.3471 169.791 31.4673 170.385 31.7004 170.938C31.9336 171.492 32.2751 171.995 32.7054 172.418C33.1356 172.84 33.6462 173.175 34.2079 173.403C34.7695 173.631 35.3711 173.746 35.9781 173.744L70.3601 173.662C71.585 173.657 72.7582 173.173 73.6223 172.316C74.4864 171.459 74.9709 170.298 74.9694 169.088Z" fill="#35363B"/>
<path d="M34.9268 171.653C34.498 171.501 34.127 171.222 33.8643 170.854C33.6016 170.486 33.4599 170.048 33.4584 169.598L33.2659 90.8677C33.2645 90.2879 33.4964 89.7312 33.9106 89.3202C34.3248 88.9092 34.8873 88.6775 35.4744 88.6761L42.7898 88.6586L42.6992 88.8793C42.5421 89.2623 42.4828 89.6777 42.5265 90.0887C42.5702 90.4997 42.7156 90.8938 42.9498 91.2363C43.1841 91.5787 43.5001 91.859 43.8698 92.0525C44.2396 92.246 44.652 92.3467 45.0704 92.3457L61.3055 92.307C61.7097 92.2722 62.0998 92.1439 62.4444 91.9326C62.789 91.7213 63.0784 91.4328 63.2892 91.0905C63.497 90.7541 63.6212 90.3739 63.6519 89.981C63.6825 89.5882 63.6186 89.1937 63.4655 88.8298L63.3738 88.6096L70.9303 88.5914C71.5172 88.5908 72.0805 88.8201 72.4965 89.229C72.9125 89.6379 73.1474 90.1931 73.1496 90.7727L73.3334 165.888C73.3353 167.426 72.7193 168.902 71.6207 169.992C70.522 171.082 69.0304 171.698 67.4729 171.703L35.6777 171.779C35.4219 171.78 35.1678 171.737 34.9268 171.653Z" fill="#27292E"/>
<path d="M47.4521 90.5247C47.73 90.5247 47.9554 90.3022 47.9554 90.0277C47.9554 89.7532 47.73 89.5306 47.4521 89.5306C47.1741 89.5306 46.9487 89.7532 46.9487 90.0277C46.9487 90.3022 47.1741 90.5247 47.4521 90.5247Z" fill="#27292E"/>
<path d="M66.9081 114.721H40.7867C40.6047 114.721 40.4301 114.649 40.3014 114.522C40.1727 114.395 40.1003 114.223 40.1001 114.043V103.575C40.1003 103.396 40.1727 103.223 40.3014 103.096C40.4301 102.969 40.6047 102.898 40.7867 102.897H66.9081C67.0902 102.898 67.2647 102.969 67.3934 103.096C67.5221 103.223 67.5945 103.396 67.5947 103.575V114.043C67.5945 114.223 67.5221 114.395 67.3934 114.522C67.2647 114.649 67.0902 114.721 66.9081 114.721Z" fill="#35363B"/>
<path d="M64.421 119.742H43.274C43.1657 119.742 43.0584 119.722 42.9582 119.681C42.8581 119.64 42.7671 119.58 42.6904 119.504C42.6137 119.429 42.5529 119.339 42.5114 119.24C42.4698 119.141 42.4485 119.036 42.4485 118.929C42.4485 118.822 42.4698 118.716 42.5114 118.617C42.5529 118.518 42.6137 118.428 42.6904 118.353C42.7671 118.277 42.8581 118.217 42.9582 118.176C43.0584 118.136 43.1657 118.115 43.274 118.115H64.421C65.4835 118.1 65.4941 119.757 64.421 119.742Z" fill="#07AAF5"/>
<path d="M64.4211 123.472H43.2741C43.0556 123.472 42.846 123.386 42.6915 123.233C42.537 123.081 42.4502 122.874 42.4502 122.658C42.4502 122.442 42.537 122.235 42.6915 122.083C42.846 121.93 43.0556 121.844 43.2741 121.844H64.4211C65.4836 121.83 65.4942 123.486 64.4211 123.472Z" fill="#D4D4D5"/>
<path d="M64.421 127.201H43.274C43.1657 127.201 43.0584 127.18 42.9582 127.14C42.8581 127.099 42.7671 127.039 42.6904 126.963C42.6137 126.888 42.5529 126.798 42.5114 126.699C42.4698 126.6 42.4485 126.494 42.4485 126.387C42.4485 126.28 42.4698 126.174 42.5114 126.076C42.5529 125.977 42.6137 125.887 42.6904 125.811C42.7671 125.736 42.8581 125.676 42.9582 125.635C43.0584 125.594 43.1657 125.573 43.274 125.574H64.421C65.4835 125.559 65.4941 127.216 64.421 127.201Z" fill="#D4D4D5"/>
<path d="M66.9081 146.088H40.7867C40.6047 146.088 40.4301 146.017 40.3014 145.89C40.1727 145.762 40.1003 145.59 40.1001 145.41V134.943C40.1003 134.763 40.1727 134.591 40.3014 134.464C40.4301 134.336 40.6047 134.265 40.7867 134.265H66.9081C67.0902 134.265 67.2647 134.336 67.3934 134.464C67.5221 134.591 67.5945 134.763 67.5947 134.943V145.41C67.5945 145.59 67.5221 145.762 67.3934 145.89C67.2647 146.017 67.0902 146.088 66.9081 146.088Z" fill="#35363B"/>
<path d="M64.421 151.11H43.274C43.1657 151.11 43.0584 151.089 42.9582 151.048C42.8581 151.007 42.7671 150.948 42.6904 150.872C42.6137 150.796 42.5529 150.707 42.5114 150.608C42.4698 150.509 42.4485 150.403 42.4485 150.296C42.4485 150.189 42.4698 150.083 42.5114 149.984C42.5529 149.885 42.6137 149.796 42.6904 149.72C42.7671 149.645 42.8581 149.585 42.9582 149.544C43.0584 149.503 43.1657 149.482 43.274 149.482H64.421C65.4835 149.468 65.4941 151.124 64.421 151.11Z" fill="#07AAF5"/>
<path d="M64.4211 154.839H43.2741C43.0556 154.839 42.846 154.753 42.6915 154.601C42.537 154.448 42.4502 154.241 42.4502 154.025C42.4502 153.81 42.537 153.603 42.6915 153.45C42.846 153.297 43.0556 153.212 43.2741 153.212H64.4211C65.4836 153.197 65.4942 154.854 64.4211 154.839Z" fill="#D4D4D5"/>
<path d="M64.421 158.568H43.274C43.1657 158.569 43.0584 158.548 42.9582 158.507C42.8581 158.466 42.7671 158.406 42.6904 158.331C42.6137 158.255 42.5529 158.165 42.5114 158.067C42.4698 157.968 42.4485 157.862 42.4485 157.755C42.4485 157.648 42.4698 157.542 42.5114 157.443C42.5529 157.344 42.6137 157.254 42.6904 157.179C42.7671 157.103 42.8581 157.043 42.9582 157.003C43.0584 156.962 43.1657 156.941 43.274 156.941H64.421C65.4835 156.926 65.4941 158.583 64.421 158.568Z" fill="#D4D4D5"/>
<rect x="90.6699" y="108.998" width="5.14723" height="2.37813" rx="1.18906" fill="#F44459"/>
<rect x="51.0762" y="129.212" width="5.14721" height="1.58543" rx="0.792717" fill="#F44459"/>
<rect x="51.0762" y="160.524" width="5.14721" height="1.58542" rx="0.792709" fill="#F44459"/>
<rect x="136.599" y="108.998" width="5.1472" height="2.37813" rx="1.18906" fill="#F44459"/>
</svg>
