<svg width="288" height="181" viewBox="0 0 288 181" fill="none" xmlns="http://www.w3.org/2000/svg">
<g id="hero">
<g id="undraw_In_sync_re_jlqd 1">
<path id="Vector" d="M37.1025 136.155H229.48V26.4382C229.479 25.6161 229.147 24.828 228.557 24.2467C227.967 23.6654 227.167 23.3385 226.333 23.3375H40.2501C39.4156 23.3385 38.6156 23.6654 38.0255 24.2467C37.4354 24.828 37.1035 25.6161 37.1025 26.4382V136.155Z" fill="#35363B"/>
<g id="desctop-backgrpund">
<path id="Vector_2" d="M223.536 27.6259H43.0464V128.568H223.536V27.6259Z" fill="#27292E"/>
</g>
<path id="Vector_3" d="M36.9351 133.186V146.726C36.9351 147.287 37.0473 147.843 37.2653 148.361C37.4833 148.88 37.8029 149.351 38.2058 149.748C38.6087 150.145 39.087 150.46 39.6134 150.674C40.1397 150.889 40.7039 151 41.2737 151H112.279V177.72H111.336C111.262 177.72 111.188 177.734 111.12 177.762C111.051 177.79 110.989 177.831 110.937 177.882C110.885 177.934 110.843 177.995 110.815 178.063C110.787 178.13 110.772 178.202 110.772 178.275V180.133C110.772 180.206 110.787 180.279 110.815 180.346C110.843 180.413 110.885 180.475 110.937 180.526C110.989 180.578 111.051 180.619 111.12 180.646C111.188 180.674 111.262 180.689 111.336 180.689H155.415C155.489 180.689 155.562 180.674 155.63 180.646C155.699 180.619 155.761 180.578 155.813 180.526C155.865 180.475 155.907 180.413 155.935 180.346C155.964 180.279 155.978 180.206 155.978 180.133V178.275C155.978 178.202 155.964 178.13 155.935 178.063C155.907 177.995 155.865 177.934 155.813 177.882C155.761 177.831 155.699 177.79 155.63 177.762C155.562 177.734 155.489 177.72 155.415 177.72H154.471V151H225.476C226.046 151 226.61 150.889 227.137 150.674C227.663 150.46 228.141 150.145 228.544 149.748C228.947 149.351 229.267 148.88 229.485 148.361C229.703 147.843 229.815 147.287 229.815 146.726V133.187L36.9351 133.186Z" fill="#35363B"/>
<g id="desctop-images">
<path id="Vector_4" d="M99.1696 77.5456H55.1854C54.8789 77.5453 54.585 77.4252 54.3683 77.2117C54.1516 76.9982 54.0297 76.7087 54.0293 76.4067V58.8255C54.0297 58.5236 54.1516 58.2341 54.3683 58.0206C54.585 57.8071 54.8789 57.687 55.1854 57.6866H99.1696C99.4761 57.687 99.77 57.8071 99.9867 58.0206C100.203 58.2341 100.325 58.5236 100.326 58.8255V76.4067C100.325 76.7087 100.203 76.9982 99.9867 77.2117C99.77 77.4252 99.4761 77.5453 99.1696 77.5456Z" fill="#35363B"/>
<path id="Vector_5" d="M155.283 77.5456H111.299C110.993 77.5453 110.699 77.4252 110.482 77.2117C110.265 76.9982 110.143 76.7087 110.143 76.4067V58.8255C110.143 58.5236 110.265 58.2341 110.482 58.0206C110.699 57.8071 110.993 57.687 111.299 57.6866H155.283C155.59 57.687 155.884 57.8071 156.1 58.0206C156.317 58.2341 156.439 58.5236 156.439 58.8255V76.4067C156.439 76.7087 156.317 76.9982 156.1 77.2117C155.884 77.4252 155.59 77.5453 155.283 77.5456Z" fill="#35363B"/>
<path id="Vector_6" d="M211.397 77.5456H167.412C167.106 77.5453 166.812 77.4252 166.595 77.2117C166.379 76.9982 166.257 76.7087 166.256 76.4067V58.8255C166.257 58.5236 166.379 58.2341 166.595 58.0206C166.812 57.8071 167.106 57.687 167.412 57.6866H211.397C211.703 57.687 211.997 57.8071 212.214 58.0206C212.43 58.2341 212.552 58.5236 212.553 58.8255V76.4067C212.552 76.7087 212.43 76.9982 212.214 77.2117C211.997 77.4252 211.703 77.5453 211.397 77.5456Z" fill="#35363B"/>
</g>
<g id="desctop-headlines">
<path id="Vector_7" d="M94.9816 85.9795H59.3736C59.0057 85.9795 58.6528 85.8355 58.3927 85.5792C58.1325 85.3229 57.9863 84.9753 57.9863 84.6128C57.9863 84.2503 58.1325 83.9027 58.3927 83.6464C58.6528 83.3901 59.0057 83.2461 59.3736 83.2461H94.9816C96.7707 83.2215 96.7886 86.0043 94.9816 85.9795Z" fill="#07AAF5"/>
<path id="Vector_8" d="M151.095 85.9795H115.487C115.119 85.9795 114.767 85.8355 114.506 85.5792C114.246 85.3229 114.1 84.9753 114.1 84.6128C114.1 84.2503 114.246 83.9027 114.506 83.6464C114.767 83.3901 115.119 83.2461 115.487 83.2461H151.095C152.884 83.2215 152.902 86.0043 151.095 85.9795Z" fill="#07AAF5"/>
<path id="Vector_9" d="M207.209 85.9795H171.601C171.233 85.9795 170.88 85.8355 170.62 85.5792C170.36 85.3229 170.213 84.9753 170.213 84.6128C170.213 84.2503 170.36 83.9027 170.62 83.6464C170.88 83.3901 171.233 83.2461 171.601 83.2461H207.209C208.998 83.2215 209.016 86.0043 207.209 85.9795Z" fill="#07AAF5"/>
</g>
<g id="desctop-text">
<path id="Vector_10" d="M94.9816 92.2434H59.3737C59.0057 92.2434 58.6528 92.0994 58.3927 91.8431C58.1325 91.5868 57.9863 91.2392 57.9863 90.8767C57.9863 90.5143 58.1325 90.1666 58.3927 89.9103C58.6528 89.654 59.0057 89.51 59.3737 89.51H94.9816C96.7707 89.4854 96.7886 92.2682 94.9816 92.2434Z" fill="#D4D4D5"/>
<path id="Vector_11" d="M94.9816 98.4713H59.3737C59.0057 98.4713 58.6528 98.3273 58.3927 98.071C58.1325 97.8147 57.9863 97.4671 57.9863 97.1046C57.9863 96.7422 58.1325 96.3946 58.3927 96.1383C58.6528 95.882 59.0057 95.738 59.3737 95.738H94.9816C96.7707 95.7134 96.7886 98.4961 94.9816 98.4713Z" fill="#D4D4D5"/>
<path id="Vector_12" d="M151.095 92.2434H115.487C115.119 92.2434 114.767 92.0994 114.506 91.8431C114.246 91.5868 114.1 91.2392 114.1 90.8767C114.1 90.5143 114.246 90.1666 114.506 89.9103C114.767 89.654 115.119 89.51 115.487 89.51H151.095C152.884 89.4854 152.902 92.2682 151.095 92.2434Z" fill="#D4D4D5"/>
<path id="Vector_13" d="M151.095 98.5073H115.487C115.119 98.5073 114.767 98.3633 114.506 98.107C114.246 97.8507 114.1 97.5031 114.1 97.1406C114.1 96.7782 114.246 96.4306 114.506 96.1743C114.767 95.918 115.119 95.774 115.487 95.774H151.095C152.884 95.7494 152.902 98.5321 151.095 98.5073Z" fill="#D4D4D5"/>
<path id="Vector_14" d="M207.209 92.2434H171.601C171.233 92.2428 170.881 92.0985 170.621 91.8423C170.362 91.5861 170.216 91.2388 170.216 90.8767C170.216 90.5147 170.362 90.1674 170.621 89.9112C170.881 89.6549 171.233 89.5107 171.601 89.51H207.209C208.998 89.4854 209.016 92.2682 207.209 92.2434Z" fill="#D4D4D5"/>
<path id="Vector_15" d="M207.209 98.5073H171.601C171.233 98.5073 170.88 98.3633 170.62 98.107C170.36 97.8507 170.213 97.5031 170.213 97.1406C170.213 96.7782 170.36 96.4306 170.62 96.1743C170.88 95.918 171.233 95.774 171.601 95.774H207.209C208.998 95.7494 209.016 98.5321 207.209 98.5073Z" fill="#D4D4D5"/>
</g>
<path id="Vector test" d="M286.556 57.924L286.676 79.9606L287.167 79.9334L287.632 88.0919L286.722 88.1409L286.748 93.0424L287.476 93.0282L287.624 101.194L286.794 101.209L287.189 173.118C287.198 175.001 286.448 176.81 285.104 178.149C283.76 179.487 281.931 180.246 280.02 180.258L199.386 180.689C197.475 180.697 195.638 179.958 194.279 178.634C192.92 177.31 192.15 175.509 192.138 173.626L191.504 58.432C191.496 56.5491 192.246 54.7397 193.59 53.401C194.934 52.0624 196.763 51.3037 198.674 51.2916L279.308 50.8612C281.219 50.8534 283.055 51.5926 284.414 52.9166C285.773 54.2406 286.543 56.0413 286.556 57.924Z" fill="#35363B"/>
<g id="tablet-background">
<path id="Vector_16" d="M280.136 175.728L199.219 176.16C198.63 176.163 198.063 175.935 197.645 175.527C197.226 175.118 196.988 174.563 196.985 173.983L196.346 58.0233C196.344 57.443 196.575 56.8853 196.989 56.4727C197.404 56.0601 197.967 55.8262 198.556 55.8224L279.474 55.3901C280.063 55.3877 280.629 55.6155 281.048 56.0236C281.467 56.4318 281.704 56.987 281.708 57.5673L282.347 173.527C282.349 174.107 282.118 174.665 281.703 175.078C281.289 175.49 280.726 175.724 280.136 175.728Z" fill="#27292E"/>
</g>
<g id="tablet-button">
<rect id="Rectangle 32" x="236.382" y="114.524" width="6.27136" height="2.89023" rx="1.44511" fill="#F44459"/>
<rect id="Rectangle 33" x="236.382" y="168.476" width="6.27136" height="2.89024" rx="1.44512" fill="#F44459"/>
</g>
<path id="Vector_17" d="M238.695 53.856C239.034 53.856 239.309 53.5855 239.309 53.2519C239.309 52.9183 239.034 52.6478 238.695 52.6478C238.357 52.6478 238.082 52.9183 238.082 53.2519C238.082 53.5855 238.357 53.856 238.695 53.856Z" fill="#27292E"/>
<g id="tablet-images">
<path id="Vector_18" d="M262.763 88.029H215.93C215.604 88.0286 215.291 87.9007 215.06 87.6734C214.829 87.446 214.7 87.1378 214.699 86.8163V68.0965C214.7 67.775 214.829 67.4668 215.06 67.2394C215.291 67.0121 215.604 66.8842 215.93 66.8838H262.763C263.089 66.8842 263.402 67.0121 263.633 67.2394C263.864 67.4668 263.994 67.775 263.994 68.0965V86.8163C263.994 87.1378 263.864 87.446 263.633 87.6734C263.402 87.9007 263.089 88.0286 262.763 88.029Z" fill="#35363B"/>
<path id="Vector_19" d="M262.763 142.347H215.93C215.604 142.347 215.291 142.219 215.06 141.991C214.829 141.764 214.7 141.456 214.699 141.134V122.415C214.7 122.093 214.829 121.785 215.06 121.558C215.291 121.33 215.604 121.202 215.93 121.202H262.763C263.089 121.202 263.402 121.33 263.633 121.558C263.864 121.785 263.994 122.093 263.994 122.415V141.134C263.994 141.456 263.864 141.764 263.633 141.991C263.402 142.219 263.089 142.347 262.763 142.347Z" fill="#35363B"/>
</g>
<g id="tablet-headlines">
<path id="Vector_20" d="M258.303 97.0089H220.389C219.998 97.0089 219.622 96.8556 219.345 96.5827C219.068 96.3098 218.912 95.9397 218.912 95.5538C218.912 95.1678 219.068 94.7977 219.345 94.5248C219.622 94.2519 219.998 94.0986 220.389 94.0986H258.303C260.208 94.0724 260.227 97.0354 258.303 97.0089Z" fill="#07AAF5"/>
<path id="Vector_21" d="M258.303 151.327H220.389C219.998 151.327 219.622 151.174 219.345 150.901C219.068 150.628 218.912 150.258 218.912 149.872C218.912 149.486 219.068 149.116 219.345 148.843C219.622 148.57 219.998 148.417 220.389 148.417H258.303C260.208 148.391 260.227 151.354 258.303 151.327Z" fill="#07AAF5"/>
</g>
<g id="tablet-text">
<path id="Vector_22" d="M258.303 103.679H220.389C219.998 103.678 219.623 103.524 219.346 103.252C219.07 102.979 218.915 102.609 218.915 102.223C218.915 101.838 219.07 101.468 219.346 101.195C219.623 100.922 219.998 100.769 220.389 100.768H258.303C260.208 100.742 260.227 103.705 258.303 103.679Z" fill="#D4D4D5"/>
<path id="Vector_23" d="M258.303 110.348H220.389C219.998 110.348 219.622 110.195 219.345 109.922C219.068 109.649 218.912 109.279 218.912 108.893C218.912 108.507 219.068 108.137 219.345 107.864C219.622 107.591 219.998 107.438 220.389 107.438H258.303C260.208 107.412 260.227 110.375 258.303 110.348Z" fill="#D4D4D5"/>
<path id="Vector_24" d="M258.303 157.997H220.389C219.998 157.996 219.623 157.842 219.346 157.57C219.07 157.297 218.915 156.927 218.915 156.541C218.915 156.156 219.07 155.786 219.346 155.513C219.623 155.241 219.998 155.087 220.389 155.086H258.303C260.208 155.06 260.227 158.023 258.303 157.997Z" fill="#D4D4D5"/>
<path id="Vector_25" d="M258.303 164.666H220.389C219.998 164.666 219.622 164.513 219.345 164.24C219.068 163.967 218.912 163.597 218.912 163.211C218.912 162.825 219.068 162.455 219.345 162.182C219.622 161.909 219.998 161.756 220.389 161.756H258.303C260.208 161.73 260.227 164.693 258.303 164.666Z" fill="#D4D4D5"/>
</g>
<path id="Vector_26" d="M54.6792 175.03L54.5234 111.524L55.1111 111.523L55.0827 99.8422L54.495 99.8438L54.447 80.3453C54.4452 79.6171 54.2978 78.8963 54.0133 78.2242C53.7288 77.5521 53.3126 76.9417 52.7886 76.428C52.2647 75.9143 51.6431 75.5073 50.9595 75.2303C50.2758 74.9532 49.5435 74.8115 48.8042 74.8132L6.91308 74.9129C6.17383 74.9146 5.44216 75.0598 4.75986 75.3401C4.07756 75.6203 3.45798 76.0303 2.9365 76.5464C2.41501 77.0626 2.00184 77.6749 1.72057 78.3484C1.4393 79.0219 1.29544 79.7433 1.29721 80.4716L1.33054 94.067L0.394531 94.09L0.601268 102.256L1.35059 102.238L1.35503 104.04L0.557608 104.06L0.764345 112.226L1.37507 112.211L1.52946 175.156C1.52986 175.885 1.67629 176.606 1.96034 177.279C2.2444 177.952 2.66049 178.563 3.18475 179.077C3.70901 179.591 4.33113 179.998 5.01541 180.274C5.6997 180.551 6.43268 180.692 7.17233 180.689L49.0633 180.589C50.5557 180.584 51.9852 179.996 53.038 178.953C54.0908 177.911 54.681 176.5 54.6792 175.03Z" fill="#35363B"/>
<g id="mobile-background">
<path id="Vector_27" d="M5.89133 178.147C5.36889 177.962 4.9169 177.623 4.59681 177.177C4.27672 176.73 4.10405 176.197 4.10226 175.65L3.86768 79.9658C3.86603 79.2611 4.14859 78.5846 4.65322 78.0851C5.15784 77.5856 5.84321 77.304 6.55857 77.3023L15.4717 77.2811L15.3613 77.5492C15.1698 78.0147 15.0976 78.5195 15.1508 79.019C15.2041 79.5186 15.3812 79.9976 15.6666 80.4138C15.9521 80.83 16.337 81.1707 16.7876 81.4058C17.2381 81.6409 17.7405 81.7633 18.2504 81.7621L38.0312 81.7151C38.5236 81.6728 38.9989 81.5169 39.4188 81.26C39.8387 81.0032 40.1913 80.6526 40.4481 80.2366C40.7012 79.8277 40.8526 79.3657 40.89 78.8882C40.9273 78.4107 40.8495 77.9313 40.6629 77.4891L40.5512 77.2214L49.758 77.1993C50.4731 77.1986 51.1594 77.4773 51.6663 77.9742C52.1732 78.4712 52.4593 79.1459 52.4619 79.8504L52.686 171.141C52.6883 173.01 51.9378 174.804 50.5992 176.129C49.2606 177.454 47.4431 178.202 45.5456 178.209L6.80621 178.301C6.49454 178.302 6.18501 178.25 5.89133 178.147Z" fill="#27292E"/>
</g>
<path id="Vector_28" d="M21.1523 79.549C21.491 79.549 21.7656 79.2786 21.7656 78.9449C21.7656 78.6113 21.491 78.3408 21.1523 78.3408C20.8136 78.3408 20.5391 78.6113 20.5391 78.9449C20.5391 79.2786 20.8136 79.549 21.1523 79.549Z" fill="#27292E"/>
<g id="mobile-images">
<path id="Vector_29" d="M44.8577 108.956H13.0314C12.8096 108.955 12.597 108.868 12.4401 108.714C12.2833 108.56 12.1951 108.35 12.1948 108.132V95.41C12.1951 95.1915 12.2833 94.9821 12.4401 94.8276C12.597 94.6731 12.8096 94.5862 13.0314 94.5859H44.8577C45.0795 94.5862 45.2922 94.6731 45.449 94.8276C45.6058 94.9821 45.694 95.1915 45.6943 95.41V108.132C45.694 108.35 45.6058 108.56 45.449 108.714C45.2922 108.868 45.0795 108.955 44.8577 108.956Z" fill="#35363B"/>
<path id="Vector_30" d="M44.8577 147.078H13.0314C12.8096 147.078 12.597 146.991 12.4401 146.836C12.2833 146.682 12.1951 146.472 12.1948 146.254V133.532C12.1951 133.314 12.2833 133.104 12.4401 132.95C12.597 132.795 12.8096 132.708 13.0314 132.708H44.8577C45.0795 132.708 45.2922 132.795 45.449 132.95C45.6058 133.104 45.694 133.314 45.6943 133.532V146.254C45.694 146.472 45.6058 146.682 45.449 146.836C45.2922 146.991 45.0795 147.078 44.8577 147.078Z" fill="#35363B"/>
</g>
<g id="mobile-headlines">
<path id="Vector_31" d="M41.8269 115.058H16.0615C15.9295 115.058 15.7988 115.033 15.6767 114.984C15.5547 114.934 15.4438 114.861 15.3504 114.769C15.257 114.677 15.1828 114.568 15.1323 114.448C15.0817 114.328 15.0557 114.199 15.0557 114.069C15.0557 113.939 15.0817 113.811 15.1323 113.69C15.1828 113.57 15.257 113.461 15.3504 113.369C15.4438 113.278 15.5547 113.205 15.6767 113.155C15.7988 113.106 15.9295 113.08 16.0615 113.08H41.8269C43.1215 113.063 43.1345 115.076 41.8269 115.058Z" fill="#07AAF5"/>
<path id="Vector_32" d="M41.8269 153.18H16.0615C15.9295 153.181 15.7988 153.155 15.6767 153.106C15.5547 153.056 15.4438 152.983 15.3504 152.891C15.257 152.8 15.1828 152.691 15.1323 152.57C15.0817 152.45 15.0557 152.322 15.0557 152.192C15.0557 152.061 15.0817 151.933 15.1323 151.813C15.1828 151.692 15.257 151.583 15.3504 151.492C15.4438 151.4 15.5547 151.327 15.6767 151.277C15.7988 151.228 15.9295 151.202 16.0615 151.203H41.8269C43.1215 151.185 43.1345 153.198 41.8269 153.18Z" fill="#07AAF5"/>
</g>
<g id="mobile-text">
<path id="Vector_33" d="M41.8269 119.591H16.0615C15.7952 119.591 15.5399 119.487 15.3516 119.301C15.1634 119.116 15.0576 118.864 15.0576 118.602C15.0576 118.34 15.1634 118.088 15.3516 117.903C15.5399 117.717 15.7952 117.613 16.0615 117.613H41.8269C43.1215 117.595 43.1344 119.609 41.8269 119.591Z" fill="#D4D4D5"/>
<path id="Vector_34" d="M41.8269 124.123H16.0615C15.9295 124.123 15.7988 124.098 15.6767 124.049C15.5547 123.999 15.4438 123.926 15.3504 123.834C15.257 123.742 15.1828 123.633 15.1323 123.513C15.0817 123.393 15.0557 123.264 15.0557 123.134C15.0557 123.004 15.0817 122.876 15.1323 122.755C15.1828 122.635 15.257 122.526 15.3504 122.434C15.4438 122.343 15.5547 122.27 15.6767 122.22C15.7988 122.171 15.9295 122.145 16.0615 122.145H41.8269C43.1215 122.128 43.1345 124.141 41.8269 124.123Z" fill="#D4D4D5"/>
<path id="Vector_35" d="M41.8269 157.713H16.0615C15.7952 157.713 15.5399 157.609 15.3516 157.423C15.1634 157.238 15.0576 156.986 15.0576 156.724C15.0576 156.462 15.1634 156.21 15.3516 156.025C15.5399 155.839 15.7952 155.735 16.0615 155.735H41.8269C43.1215 155.717 43.1344 157.731 41.8269 157.713Z" fill="#D4D4D5"/>
<path id="Vector_36" d="M41.8269 162.245H16.0615C15.9295 162.246 15.7988 162.22 15.6767 162.171C15.5547 162.121 15.4438 162.048 15.3504 161.956C15.257 161.865 15.1828 161.755 15.1323 161.635C15.0817 161.515 15.0557 161.387 15.0557 161.256C15.0557 161.126 15.0817 160.998 15.1323 160.878C15.1828 160.757 15.257 160.648 15.3504 160.557C15.4438 160.465 15.5547 160.392 15.6767 160.342C15.7988 160.293 15.9295 160.267 16.0615 160.268H41.8269C43.1215 160.25 43.1345 162.263 41.8269 162.245Z" fill="#D4D4D5"/>
</g>
<g id="mobile-button">
<rect id="Rectangle 27" x="25.5679" y="126.567" width="6.27136" height="1.92682" rx="0.963409" fill="#F44459"/>
<rect id="Rectangle 31" x="25.5679" y="164.622" width="6.27136" height="1.92683" rx="0.963417" fill="#F44459"/>
</g>
<g id="desctop-button">
<rect id="Rectangle 29" x="186.211" y="102" width="6.27135" height="2.89024" rx="1.44512" fill="#F44459"/>
<rect id="Rectangle 30" x="73.8091" y="102" width="6.27135" height="2.89024" rx="1.44512" fill="#F44459"/>
<rect id="Rectangle 28" x="129.769" y="102" width="6.27135" height="2.89024" rx="1.44512" fill="#F44459"/>
</g>
</g>
<g id="cogwheel">
<path id="Vector_37" d="M243.286 13.2932C243.107 13.4814 242.862 13.6037 242.595 13.6379L237.636 13.5929C237.024 13.6081 236.431 13.7934 235.932 14.1251C235.432 14.4568 235.049 14.9201 234.831 15.4563C234.831 15.4563 234.612 16.0382 234.372 16.93C234.132 17.8217 234.031 18.4311 234.031 18.4311C233.845 19.5576 234.513 20.804 235.587 21.331L239.96 23.4791C240.194 23.6456 240.353 23.8894 240.402 24.161L240.65 25.7471C240.666 25.9977 240.587 26.2454 240.426 26.4465L236.904 29.6836C236.022 30.4929 235.79 31.8767 236.397 32.9632L237.994 35.461C238.668 36.3902 240.128 36.8647 241.274 36.53L246.134 35.1363C246.398 35.1363 246.662 35.2312 246.811 35.3436L248.183 36.2927C248.383 36.4613 248.513 36.6903 248.551 36.9397L248.503 41.5656C248.492 42.7045 249.345 43.846 250.491 44.2207C250.491 44.2207 251.112 44.4255 252.063 44.6503C253.014 44.8751 253.665 44.97 253.665 44.97C253.734 44.98 254.011 45 254.08 45C254.627 44.9936 255.162 44.8527 255.632 44.5915C256.102 44.3302 256.49 43.9577 256.758 43.5113L259.05 39.4125C259.228 39.1928 259.488 39.0445 259.778 38.9978L261.544 38.758C261.811 38.758 262.125 38.8879 262.213 38.9729L265.667 42.2749C266.506 43.0792 267.921 43.3665 269.165 42.7495L271.827 41.2533C272.845 40.6039 273.338 39.2801 272.97 38.1786L271.5 33.765C271.46 33.4907 271.535 33.2126 271.707 32.9882L272.72 31.7018C272.899 31.5136 273.144 31.3914 273.41 31.3571L278.369 31.4021C278.981 31.3869 279.575 31.2017 280.074 30.8699C280.574 30.5382 280.957 30.0749 281.175 29.5387C281.175 29.5387 281.394 28.9568 281.633 28.0651C281.873 27.1733 281.974 26.5639 281.974 26.5639C282.054 25.9901 281.948 25.4073 281.67 24.8905C281.393 24.3736 280.957 23.9465 280.418 23.664L276.046 21.5159C275.811 21.3494 275.653 21.1056 275.603 20.834L275.358 19.2529C275.342 19.0023 275.422 18.7546 275.582 18.5535L279.105 15.3164C279.987 14.5071 280.218 13.1233 279.611 12.0368L278.015 9.53902C277.341 8.61234 275.883 8.13277 274.734 8.46747L269.871 9.86123C269.628 9.86092 269.391 9.78834 269.195 9.65392L267.822 8.70476C267.623 8.53621 267.492 8.30723 267.455 8.05784L267.502 3.43195C267.492 2.85383 267.297 2.29187 266.943 1.81859C266.589 1.34532 266.091 0.982443 265.515 0.77681C265.515 0.77681 264.894 0.571992 263.942 0.347191C262.991 0.122391 262.341 0.0274756 262.341 0.0274756C262.203 0.0145911 262.064 0.00542885 261.925 0C261.379 0.00637983 260.844 0.147268 260.374 0.408545C259.904 0.669822 259.515 1.04231 259.247 1.48868L256.956 5.58753C256.778 5.80724 256.518 5.95546 256.228 6.00216L254.461 6.23945C254.22 6.23456 253.986 6.15949 253.793 6.02464L250.339 2.72258C249.888 2.3016 249.304 2.02812 248.674 1.94264C248.043 1.85716 247.401 1.96424 246.84 2.248L244.176 3.74167C243.158 4.3911 242.665 5.71492 243.032 6.81644L244.503 11.23C244.543 11.5043 244.468 11.7824 244.296 12.0068L243.286 13.2932ZM245.471 14.7219L246.385 13.5579C247.099 12.7662 247.376 11.4748 247.046 10.4882L245.577 6.0771C245.564 6.00716 245.623 5.8498 245.609 5.8473L248.135 4.42856L248.437 4.47103L251.893 7.77309C252.506 8.35757 253.515 8.73723 254.464 8.73723C254.647 8.73993 254.829 8.72402 255.008 8.68978L256.54 8.47746C257.115 8.41203 257.667 8.22115 258.149 7.92013C258.632 7.61911 259.032 7.21631 259.319 6.74401L261.608 2.64765C261.691 2.56102 261.805 2.50663 261.928 2.49528C261.957 2.49778 262.501 2.5827 263.295 2.76754C264.086 2.95487 264.609 3.12223 264.633 3.13222C264.715 3.16469 264.835 3.32704 264.84 3.40697L264.792 8.03286C264.782 9.06694 265.445 10.2284 266.303 10.7529L267.542 11.6097C268.366 12.2616 269.778 12.5364 270.817 12.2291L275.545 10.8504C275.656 10.8504 275.782 10.9153 275.766 10.8828L277.279 13.2507C277.309 13.3157 277.279 13.4805 277.234 13.533L273.711 16.7726C272.925 17.4994 272.517 18.7583 272.733 19.6925L272.957 21.1287C273.053 22.1578 273.831 23.2543 274.809 23.7339L279.179 25.8795C279.271 25.9573 279.329 26.064 279.342 26.1792C279.264 26.6099 279.167 27.0374 279.051 27.4606C278.941 27.8836 278.811 28.3019 278.662 28.7145C278.628 28.7919 278.454 28.9043 278.369 28.9093L273.407 28.8643C272.312 28.8643 271.087 29.4863 270.532 30.2806L269.621 31.4421C269.261 31.8691 269.014 32.3695 268.899 32.9029C268.784 33.4362 268.805 33.9875 268.96 34.5118L270.428 38.9229C270.442 38.9903 270.383 39.1502 270.396 39.1527L267.87 40.5714L267.569 40.529L264.113 37.2269C263.5 36.6424 262.49 36.2628 261.542 36.2628C261.359 36.2601 261.177 36.276 260.998 36.3102L259.466 36.5225C258.89 36.588 258.339 36.7789 257.856 37.0799C257.374 37.3809 256.973 37.7837 256.686 38.256L254.397 42.3524C254.315 42.439 254.201 42.4934 254.078 42.5047C253.618 42.4315 253.162 42.3407 252.711 42.2325C252.259 42.1289 251.813 42.0072 251.373 41.8678C251.29 41.8353 251.171 41.673 251.165 41.593L251.213 36.9671C251.224 35.9331 250.56 34.7716 249.702 34.2471L248.463 33.3903C248.007 33.0529 247.473 32.8209 246.903 32.7133C246.334 32.6057 245.745 32.6254 245.186 32.7709L240.458 34.1496C240.344 34.1496 240.219 34.0922 240.237 34.1172L238.724 31.7493C238.694 31.6843 238.724 31.5195 238.769 31.467L242.292 28.2274C243.078 27.5006 243.485 26.2417 243.27 25.3075L243.046 23.8738C242.976 23.334 242.772 22.8172 242.45 22.3648C242.129 21.9123 241.698 21.5369 241.194 21.2686L236.824 19.123C236.732 19.0452 236.674 18.9385 236.661 18.8233C236.664 18.7958 236.754 18.2862 236.952 17.5419C237.151 16.8001 237.33 16.3105 237.341 16.288C237.375 16.2106 237.549 16.0982 237.634 16.0932L242.595 16.1382C243.691 16.1382 244.916 15.5162 245.471 14.7219Z" fill="#35363B"/>
<path id="Vector_38" d="M257 30C261.411 30 265 26.4107 265 22C265 17.5893 261.411 14 257 14C252.589 14 249 17.5893 249 22C249 26.4107 252.589 30 257 30ZM257 16.6667C259.941 16.6667 262.333 19.0587 262.333 22C262.333 24.9413 259.941 27.3333 257 27.3333C254.059 27.3333 251.667 24.9413 251.667 22C251.667 19.0587 254.059 16.6667 257 16.6667Z" fill="#35363B"/>
</g>
</g>
</svg>
