<svg width="31" height="31" viewBox="0 0 31 31" fill="none" xmlns="http://www.w3.org/2000/svg">
<path d="M5.71743 26.351L3.54065 1.9375H27.4591L25.2794 26.3471L15.4853 29.0625L5.71743 26.351Z" fill="#E44F26"/>
<path d="M15.5 26.9874L23.4147 24.7932L25.2766 3.93408H15.5V26.9874Z" fill="#F1662A"/>
<path d="M15.5 12.988H11.5378L11.2646 9.9219H15.5V6.92749H7.99219L8.06388 7.73155L8.79916 15.9824H15.5V12.988Z" fill="#EBEBEB"/>
<path d="M15.5001 20.764L15.4866 20.7679L12.1521 19.868L11.939 17.48H8.93298L9.35245 22.1804L15.4866 23.8834L15.5001 23.8795V20.764Z" fill="#EBEBEB"/>
<path d="M15.4893 12.988V15.9824H19.1763L18.8295 19.8662L15.4893 20.7671V23.8826L21.6282 22.1805L21.6728 21.6748L22.3761 13.7921L22.4497 12.988H15.4893Z" fill="white"/>
<path d="M15.4893 6.92749V9.9219H22.7219L22.782 9.24958L22.9186 7.73155L22.9903 6.92749H15.4893Z" fill="white"/>
</svg>
