<svg width="31" height="31" viewBox="0 0 31 31" fill="none" xmlns="http://www.w3.org/2000/svg">
<path d="M1.9375 1.9375H29.0625V29.0625H1.9375V1.9375Z" fill="#F5DE19"/>
<path d="M20.1588 23.1288C20.3899 23.5983 20.749 23.9929 21.1946 24.2671C21.6403 24.5413 22.1543 24.6841 22.6776 24.6788C23.7335 24.6788 24.4087 24.1509 24.4087 23.4195C24.4087 22.5476 23.7151 22.2356 22.5526 21.727L21.9152 21.4539C20.0745 20.6701 18.8539 19.6888 18.8539 17.6137C18.8539 15.7024 20.307 14.2464 22.5865 14.2464C23.3244 14.1931 24.0617 14.3582 24.7063 14.7212C25.351 15.0842 25.8745 15.6289 26.2116 16.2875L24.2188 17.5614C24.0891 17.2349 23.8631 16.9555 23.5708 16.7603C23.2786 16.5652 22.934 16.4635 22.5826 16.4687C22.4293 16.4533 22.2745 16.4701 22.1281 16.5179C21.9816 16.5657 21.8467 16.6434 21.732 16.7462C21.6172 16.849 21.5251 16.9746 21.4616 17.115C21.3981 17.2553 21.3645 17.4074 21.363 17.5614C21.363 18.3258 21.8367 18.6358 22.9304 19.1114L23.5678 19.3846C25.734 20.3136 26.9585 21.2601 26.9585 23.3885C26.9585 25.6834 25.1556 26.9409 22.7347 26.9409C21.7915 27.001 20.8509 26.7868 20.0267 26.3242C19.2024 25.8616 18.5297 25.1704 18.0896 24.334L20.1588 23.1288ZM11.1543 23.3497C11.5544 24.0598 11.9186 24.6604 12.7944 24.6604C13.6314 24.6604 14.1603 24.333 14.1603 23.0591V14.3917H16.7091V23.093C16.7091 25.7319 15.1591 26.9331 12.9029 26.9331C12.1054 26.9767 11.3133 26.7779 10.6309 26.363C9.9484 25.948 9.40749 25.3362 9.07922 24.6081L11.1543 23.3497Z" fill="black"/>
</svg>
