<svg width="60" height="60" viewBox="0 0 60 60" fill="none" xmlns="http://www.w3.org/2000/svg">
<path d="M25.125 20.2502L25.25 23.1252L23.25 26.8752L20.125 33.0002L19.5 38.1252L21.75 45.3752L26.875 48.2502H34.625L41.875 42.7502L45.125 34.1252L37.625 25.0002L35.5 19.8752L25.125 20.2502Z" fill="#ECEFF1"/>
<path d="M42.8749 27.3748C40.8749 24.4998 39.2499 22.7498 38.3749 19.1248C37.4999 15.4998 38.6249 16.4998 37.8749 13.3748C37.4999 11.7498 36.8749 10.6248 36.2499 9.74982C35.4999 8.87482 34.6249 8.37482 34.1249 8.24982C32.9999 7.62482 30.3749 6.62482 27.1249 8.37482C23.7499 10.1248 24.1249 13.8748 24.7499 21.4998C24.7499 21.9998 24.6249 22.6248 24.3749 23.1248C23.8749 24.2498 22.9999 25.2498 22.2499 26.1248C21.3749 27.3748 20.4999 28.6248 19.8749 29.9998C18.3749 32.8748 16.9999 36.4998 17.3749 37.8748C17.9999 37.7498 25.8749 49.7498 25.8749 49.9998C26.3749 49.8748 28.4999 49.8748 30.3749 49.8748C32.9999 49.7498 34.4999 49.6248 36.6249 50.1248C36.6249 49.7498 36.4999 49.3748 36.4999 48.9998C36.4999 48.2498 36.6249 47.6248 36.7499 46.7498C36.8749 46.1248 36.9999 45.4998 37.1249 44.7498C35.8749 45.8748 33.6249 47.1248 31.4999 47.4998C29.6249 47.8748 26.4999 47.2498 24.9999 45.3748C25.1249 45.3748 25.3749 45.3748 25.4999 45.2498C25.8749 45.1248 26.2499 44.9998 26.3749 44.7498C26.7499 44.1248 26.4999 43.4998 26.2499 43.1248C25.9999 42.7498 24.1249 41.3748 23.2499 40.6248C22.3749 39.8748 21.8749 39.4998 21.3749 38.9998L20.3749 37.9998C20.1249 37.7498 19.9999 37.4998 19.8749 37.3748C19.6249 36.7498 19.4999 35.9998 19.6249 34.9998C19.7499 33.6248 20.2499 32.4998 20.8749 31.2498C21.1249 30.7498 21.7499 29.7498 21.7499 29.7498C21.7499 29.7498 19.6249 34.9998 20.7499 36.6248C20.7499 36.6248 20.8749 34.9998 21.3749 33.3748C21.7499 32.2498 22.3749 30.6248 23.1249 29.7498C23.8749 28.8748 25.7499 25.6248 25.8749 23.6248C25.8749 22.7498 25.9999 21.8748 25.9999 21.2498C25.4999 20.7498 34.2499 19.4998 34.7499 20.8748C34.8749 21.3748 36.6249 25.8748 37.6249 28.2498C38.1249 29.3748 38.7499 30.3748 39.1249 31.6248C39.4999 32.9998 39.7499 34.8748 39.7499 36.7498C39.7499 37.1248 39.7499 37.7498 39.6249 38.3748C39.8749 38.3748 44.7499 33.1248 38.9999 28.7498C38.9999 28.7498 42.4999 30.3748 42.6249 33.6248C42.7499 36.2498 41.6249 38.3748 41.3749 38.7498C41.4999 38.7498 43.9999 39.8748 44.1249 39.8748C44.6249 39.8748 45.6249 39.4998 45.6249 39.4998C45.7499 39.1248 46.1249 38.1248 46.1249 37.7498C46.9999 34.8748 44.8749 30.2498 42.8749 27.3748Z" fill="#263238"/>
<path d="M27.0005 19.1255C27.898 19.1255 28.6255 18.0062 28.6255 16.6255C28.6255 15.2448 27.898 14.1255 27.0005 14.1255C26.103 14.1255 25.3755 15.2448 25.3755 16.6255C25.3755 18.0062 26.103 19.1255 27.0005 19.1255Z" fill="#ECEFF1"/>
<path d="M32.6255 19.3752C33.7991 19.3752 34.7505 18.0881 34.7505 16.5002C34.7505 14.9124 33.7991 13.6252 32.6255 13.6252C31.4519 13.6252 30.5005 14.9124 30.5005 16.5002C30.5005 18.0881 31.4519 19.3752 32.6255 19.3752Z" fill="#ECEFF1"/>
<path d="M27.9084 16.7958C27.8045 15.9739 27.3317 15.3568 26.8522 15.4174C26.3728 15.478 26.0684 16.1934 26.1722 17.0153C26.2761 17.8371 26.749 18.4543 27.2284 18.3937C27.7079 18.3331 28.0123 17.6177 27.9084 16.7958Z" fill="#212121"/>
<path d="M32.5 18.625C33.1904 18.625 33.75 17.8975 33.75 17C33.75 16.1025 33.1904 15.375 32.5 15.375C31.8096 15.375 31.25 16.1025 31.25 17C31.25 17.8975 31.8096 18.625 32.5 18.625Z" fill="#212121"/>
<path d="M49.125 44.5C48.625 44.25 47.75 43.875 47 42.75C46.625 42.125 46.75 40.375 46.125 39.625C45.75 39.125 45.25 39.375 45.125 39.375C44 39.625 41.375 41.375 39.625 39.375C39.375 39.125 39 38.75 38.375 38.75C37.75 38.75 37.5 39 37.25 39.5C37 40 37 40.375 37 41.625C37 42.625 37 43.75 36.875 44.625C36.625 46.75 36.25 48 36.25 49.25C36.25 50.625 36.625 51.5 37.125 51.875C37.5 52.25 38.125 52.5 39.5 52.5C40.875 52.5 41.75 52 42.625 51.125C43.25 50.5 43.75 50.25 45.5 49C46.875 48.125 49 47 49.375 46.625C49.625 46.375 50 46.25 50 45.5C50 44.875 49.5 44.625 49.125 44.5Z" fill="#FFC107"/>
<path d="M23.9998 44.8748C22.7498 42.8748 22.6248 42.4998 21.7498 41.2498C20.9998 39.9998 19.3748 37.6248 18.3748 37.6248C17.6248 37.6248 17.2498 37.9998 16.7498 38.4998C16.2498 38.9998 15.7498 40.1248 14.8748 40.7498C14.1248 41.3748 11.9998 41.2498 11.4998 41.9998C10.9998 42.7498 11.9998 43.8748 11.9998 45.7498C11.9998 46.4998 11.3748 46.9998 11.2498 47.4998C11.1248 48.1248 10.9998 48.4998 11.2498 48.9998C11.7498 49.7498 12.3748 49.9998 16.6248 50.8748C18.8748 51.3748 20.9998 52.6248 22.3748 52.7498C23.7498 52.8748 26.1248 52.7498 26.1248 49.3748C26.2498 47.3748 25.1248 46.8748 23.9998 44.8748Z" fill="#FFC107"/>
<path d="M26.375 22.25C25.625 21.75 25 21.25 25 20.5C25 19.75 25.5 19.5 26.25 18.875C26.375 18.75 27.75 17.5 29.125 17.5C30.5 17.5 32.125 18.375 32.75 18.625C33.875 18.875 35 19.125 34.875 20C34.75 21.25 34.625 21.5 33.375 22.125C32.5 22.375 30.875 23.75 29.75 23.75C29.25 23.75 28.5 23.75 28 23.625C27.625 23.5 27 22.875 26.375 22.25Z" fill="#FFC107"/>
<path d="M26.1248 21.2502C26.3748 21.5002 26.7498 21.7502 27.1248 21.8752C27.3748 22.0002 27.7498 22.1252 27.7498 22.1252H28.8748C29.4998 22.1252 30.3748 21.8752 31.2498 21.3752C32.1248 21.0002 32.2498 20.7502 32.8748 20.5002C33.4998 20.1252 34.1248 19.7502 33.8748 19.6252C33.6248 19.5002 33.3748 19.6252 32.4998 20.1252C31.7498 20.6252 31.1248 20.8752 30.3748 21.2502C29.9998 21.3752 29.4998 21.6252 29.1248 21.6252H27.9998C27.6248 21.6252 27.3748 21.5002 26.9998 21.3752C26.7498 21.2502 26.6248 21.1252 26.4998 21.1252C26.2498 21.0002 25.7498 20.5002 25.4998 20.3752C25.4998 20.3752 25.2498 20.3752 25.3748 20.5002L26.1248 21.2502Z" fill="#634703"/>
<path d="M29.875 18.4998C30 18.7498 30.25 18.7498 30.375 18.8748C30.5 18.9998 30.625 18.9998 30.625 18.9998C30.75 18.8748 30.625 18.6248 30.5 18.6248C30.5 18.3748 29.875 18.3748 29.875 18.4998Z" fill="#634703"/>
<path d="M27.875 18.75C27.875 18.875 28.125 19 28.125 18.875C28.25 18.75 28.375 18.625 28.5 18.625C28.75 18.5 28.625 18.375 28.25 18.375C28 18.5 28 18.625 27.875 18.75Z" fill="#634703"/>
<path d="M40 40.8749V41.2499C40.25 41.7499 40.875 41.8749 41.375 41.8749C42.125 41.8749 42.875 41.3749 43.25 40.8749C43.25 40.7499 43.375 40.6249 43.5 40.4999C43.75 40.1249 43.875 39.8749 44 39.7499C44 39.7499 43.875 39.6249 43.875 39.4999C43.75 39.2499 43.375 38.9999 42.875 38.8749C42.5 38.7499 41.875 38.6249 41.625 38.6249C40.5 38.4999 39.875 38.8749 39.5 39.2499C39.5 39.2499 39.625 39.2499 39.625 39.3749C39.875 39.6249 40 39.8749 40 40.2499C40.125 40.4999 40 40.6249 40 40.8749Z" fill="#455A64"/>
</svg>
