<svg width="320" height="61" viewBox="0 0 320 61" fill="none" xmlns="http://www.w3.org/2000/svg">
<path d="M82.93 31.13L78.64 35.48V41H76.42V20H78.64V32.69L90.97 20H93.52L84.43 29.51L94.15 41H91.51L82.93 31.13Z" fill="#07AAF5"/>
<path d="M97.2981 18.74H99.4281V41H97.2981V18.74ZM119.095 33.77H105.895C106.015 35.41 106.645 36.74 107.785 37.76C108.925 38.76 110.365 39.26 112.105 39.26C113.085 39.26 113.985 39.09 114.805 38.75C115.625 38.39 116.335 37.87 116.935 37.19L118.135 38.57C117.435 39.41 116.555 40.05 115.495 40.49C114.455 40.93 113.305 41.15 112.045 41.15C110.425 41.15 108.985 40.81 107.725 40.13C106.485 39.43 105.515 38.47 104.815 37.25C104.115 36.03 103.765 34.65 103.765 33.11C103.765 31.57 104.095 30.19 104.755 28.97C105.435 27.75 106.355 26.8 107.515 26.12C108.695 25.44 110.015 25.1 111.475 25.1C112.935 25.1 114.245 25.44 115.405 26.12C116.565 26.8 117.475 27.75 118.135 28.97C118.795 30.17 119.125 31.55 119.125 33.11L119.095 33.77ZM111.475 26.93C109.955 26.93 108.675 27.42 107.635 28.4C106.615 29.36 106.035 30.62 105.895 32.18H117.085C116.945 30.62 116.355 29.36 115.315 28.4C114.295 27.42 113.015 26.93 111.475 26.93ZM123.46 25.22H125.59V41H123.46V25.22ZM124.54 21.77C124.1 21.77 123.73 21.62 123.43 21.32C123.13 21.02 122.98 20.66 122.98 20.24C122.98 19.84 123.13 19.49 123.43 19.19C123.73 18.89 124.1 18.74 124.54 18.74C124.98 18.74 125.35 18.89 125.65 19.19C125.95 19.47 126.1 19.81 126.1 20.21C126.1 20.65 125.95 21.02 125.65 21.32C125.35 21.62 124.98 21.77 124.54 21.77ZM139.557 25.1C141.537 25.1 143.107 25.68 144.267 26.84C145.447 27.98 146.037 29.65 146.037 31.85V41H143.907V32.06C143.907 30.42 143.497 29.17 142.677 28.31C141.857 27.45 140.687 27.02 139.167 27.02C137.467 27.02 136.117 27.53 135.117 28.55C134.137 29.55 133.647 30.94 133.647 32.72V41H131.517V25.22H133.557V28.13C134.137 27.17 134.937 26.43 135.957 25.91C136.997 25.37 138.197 25.1 139.557 25.1ZM187.684 41.15C186.164 41.15 184.794 40.81 183.574 40.13C182.354 39.43 181.394 38.47 180.694 37.25C179.994 36.03 179.644 34.65 179.644 33.11C179.644 31.57 179.994 30.19 180.694 28.97C181.394 27.75 182.354 26.8 183.574 26.12C184.794 25.44 186.164 25.1 187.684 25.1C189.204 25.1 190.574 25.44 191.794 26.12C193.014 26.8 193.964 27.75 194.644 28.97C195.344 30.19 195.694 31.57 195.694 33.11C195.694 34.65 195.344 36.03 194.644 37.25C193.964 38.47 193.014 39.43 191.794 40.13C190.574 40.81 189.204 41.15 187.684 41.15ZM187.684 39.26C188.804 39.26 189.804 39.01 190.684 38.51C191.584 37.99 192.284 37.26 192.784 36.32C193.284 35.38 193.534 34.31 193.534 33.11C193.534 31.91 193.284 30.84 192.784 29.9C192.284 28.96 191.584 28.24 190.684 27.74C189.804 27.22 188.804 26.96 187.684 26.96C186.564 26.96 185.554 27.22 184.654 27.74C183.774 28.24 183.074 28.96 182.554 29.9C182.054 30.84 181.804 31.91 181.804 33.11C181.804 34.31 182.054 35.38 182.554 36.32C183.074 37.26 183.774 37.99 184.654 38.51C185.554 39.01 186.564 39.26 187.684 39.26ZM208.082 25.1C210.062 25.1 211.632 25.68 212.792 26.84C213.972 27.98 214.562 29.65 214.562 31.85V41H212.432V32.06C212.432 30.42 212.022 29.17 211.202 28.31C210.382 27.45 209.212 27.02 207.692 27.02C205.992 27.02 204.642 27.53 203.642 28.55C202.662 29.55 202.172 30.94 202.172 32.72V41H200.042V25.22H202.082V28.13C202.662 27.17 203.462 26.43 204.482 25.91C205.522 25.37 206.722 25.1 208.082 25.1ZM224.575 41.15C223.295 41.15 222.065 40.97 220.885 40.61C219.725 40.23 218.815 39.76 218.155 39.2L219.115 37.52C219.775 38.04 220.605 38.47 221.605 38.81C222.605 39.13 223.645 39.29 224.725 39.29C226.165 39.29 227.225 39.07 227.905 38.63C228.605 38.17 228.955 37.53 228.955 36.71C228.955 36.13 228.765 35.68 228.385 35.36C228.005 35.02 227.525 34.77 226.945 34.61C226.365 34.43 225.595 34.26 224.635 34.1C223.355 33.86 222.325 33.62 221.545 33.38C220.765 33.12 220.095 32.69 219.535 32.09C218.995 31.49 218.725 30.66 218.725 29.6C218.725 28.28 219.275 27.2 220.375 26.36C221.475 25.52 223.005 25.1 224.965 25.1C225.985 25.1 227.005 25.24 228.025 25.52C229.045 25.78 229.885 26.13 230.545 26.57L229.615 28.28C228.315 27.38 226.765 26.93 224.965 26.93C223.605 26.93 222.575 27.17 221.875 27.65C221.195 28.13 220.855 28.76 220.855 29.54C220.855 30.14 221.045 30.62 221.425 30.98C221.825 31.34 222.315 31.61 222.895 31.79C223.475 31.95 224.275 32.12 225.295 32.3C226.555 32.54 227.565 32.78 228.325 33.02C229.085 33.26 229.735 33.67 230.275 34.25C230.815 34.83 231.085 35.63 231.085 36.65C231.085 38.03 230.505 39.13 229.345 39.95C228.205 40.75 226.615 41.15 224.575 41.15ZM249.243 25.22V41H247.203V38.12C246.643 39.08 245.873 39.83 244.893 40.37C243.913 40.89 242.793 41.15 241.533 41.15C239.473 41.15 237.843 40.58 236.643 39.44C235.463 38.28 234.873 36.59 234.873 34.37V25.22H237.003V34.16C237.003 35.82 237.413 37.08 238.233 37.94C239.053 38.8 240.223 39.23 241.743 39.23C243.403 39.23 244.713 38.73 245.673 37.73C246.633 36.71 247.113 35.3 247.113 33.5V25.22H249.243ZM255.208 18.74H257.338V41H255.208V18.74ZM271.634 40.04C271.234 40.4 270.734 40.68 270.134 40.88C269.554 41.06 268.944 41.15 268.304 41.15C266.824 41.15 265.684 40.75 264.884 39.95C264.084 39.15 263.684 38.02 263.684 36.56V27.02H260.864V25.22H263.684V21.77H265.814V25.22H270.614V27.02H265.814V36.44C265.814 37.38 266.044 38.1 266.504 38.6C266.984 39.08 267.664 39.32 268.544 39.32C268.984 39.32 269.404 39.25 269.804 39.11C270.224 38.97 270.584 38.77 270.884 38.51L271.634 40.04ZM275.511 25.22H277.641V41H275.511V25.22ZM276.591 21.77C276.151 21.77 275.781 21.62 275.481 21.32C275.181 21.02 275.031 20.66 275.031 20.24C275.031 19.84 275.181 19.49 275.481 19.19C275.781 18.89 276.151 18.74 276.591 18.74C277.031 18.74 277.401 18.89 277.701 19.19C278.001 19.47 278.151 19.81 278.151 20.21C278.151 20.65 278.001 21.02 277.701 21.32C277.401 21.62 277.031 21.77 276.591 21.77ZM291.608 25.1C293.588 25.1 295.158 25.68 296.318 26.84C297.498 27.98 298.088 29.65 298.088 31.85V41H295.958V32.06C295.958 30.42 295.548 29.17 294.728 28.31C293.908 27.45 292.738 27.02 291.218 27.02C289.518 27.02 288.168 27.53 287.168 28.55C286.188 29.55 285.698 30.94 285.698 32.72V41H283.568V25.22H285.608V28.13C286.188 27.17 286.988 26.43 288.008 25.91C289.048 25.37 290.248 25.1 291.608 25.1ZM318.539 25.22V39.08C318.539 41.76 317.879 43.74 316.559 45.02C315.259 46.32 313.289 46.97 310.649 46.97C309.189 46.97 307.799 46.75 306.479 46.31C305.179 45.89 304.119 45.3 303.299 44.54L304.379 42.92C305.139 43.6 306.059 44.13 307.139 44.51C308.239 44.89 309.389 45.08 310.589 45.08C312.589 45.08 314.059 44.61 314.999 43.67C315.939 42.75 316.409 41.31 316.409 39.35V37.34C315.749 38.34 314.879 39.1 313.799 39.62C312.739 40.14 311.559 40.4 310.259 40.4C308.779 40.4 307.429 40.08 306.209 39.44C305.009 38.78 304.059 37.87 303.359 36.71C302.679 35.53 302.339 34.2 302.339 32.72C302.339 31.24 302.679 29.92 303.359 28.76C304.059 27.6 305.009 26.7 306.209 26.06C307.409 25.42 308.759 25.1 310.259 25.1C311.599 25.1 312.809 25.37 313.889 25.91C314.969 26.45 315.839 27.23 316.499 28.25V25.22H318.539ZM310.469 38.51C311.609 38.51 312.639 38.27 313.559 37.79C314.479 37.29 315.189 36.6 315.689 35.72C316.209 34.84 316.469 33.84 316.469 32.72C316.469 31.6 316.209 30.61 315.689 29.75C315.189 28.87 314.479 28.19 313.559 27.71C312.659 27.21 311.629 26.96 310.469 26.96C309.329 26.96 308.299 27.2 307.379 27.68C306.479 28.16 305.769 28.84 305.249 29.72C304.749 30.6 304.499 31.6 304.499 32.72C304.499 33.84 304.749 34.84 305.249 35.72C305.769 36.6 306.479 37.29 307.379 37.79C308.299 38.27 309.329 38.51 310.469 38.51Z" fill="white"/>
<path d="M169.241 41.18C167.161 41.18 165.281 40.72 163.601 39.8C161.941 38.88 160.631 37.61 159.671 35.99C158.731 34.35 158.261 32.52 158.261 30.5C158.261 28.48 158.731 26.66 159.671 25.04C160.631 23.4 161.951 22.12 163.631 21.2C165.311 20.28 167.191 19.82 169.271 19.82C170.831 19.82 172.271 20.08 173.591 20.6C174.911 21.12 176.031 21.88 176.951 22.88L175.541 24.29C173.901 22.63 171.831 21.8 169.331 21.8C167.671 21.8 166.161 22.18 164.801 22.94C163.441 23.7 162.371 24.74 161.591 26.06C160.831 27.38 160.451 28.86 160.451 30.5C160.451 32.14 160.831 33.62 161.591 34.94C162.371 36.26 163.441 37.3 164.801 38.06C166.161 38.82 167.671 39.2 169.331 39.2C171.851 39.2 173.921 38.36 175.541 36.68L176.951 38.09C176.031 39.09 174.901 39.86 173.561 40.4C172.241 40.92 170.801 41.18 169.241 41.18Z" fill="#F44459"/>
<circle cx="30.5" cy="30.5" r="30.5" fill="#27292E"/>
<circle cx="21.5" cy="21.5" r="9.5" fill="#07AAF5"/>
<circle cx="40.5" cy="40.5" r="9.5" fill="#F44459"/>
</svg>
