<svg width="320" height="61" viewBox="0 0 320 61" fill="none" xmlns="http://www.w3.org/2000/svg">
<path d="M80.368 39.144C79.12 39.144 77.92 38.944 76.768 38.544C75.632 38.144 74.752 37.616 74.128 36.96L74.824 35.592C75.432 36.2 76.24 36.696 77.248 37.08C78.256 37.448 79.296 37.632 80.368 37.632C81.872 37.632 83 37.36 83.752 36.816C84.504 36.256 84.88 35.536 84.88 34.656C84.88 33.984 84.672 33.448 84.256 33.048C83.856 32.648 83.36 32.344 82.768 32.136C82.176 31.912 81.352 31.672 80.296 31.416C79.032 31.096 78.024 30.792 77.272 30.504C76.52 30.2 75.872 29.744 75.328 29.136C74.8 28.528 74.536 27.704 74.536 26.664C74.536 25.816 74.76 25.048 75.208 24.36C75.656 23.656 76.344 23.096 77.272 22.68C78.2 22.264 79.352 22.056 80.728 22.056C81.688 22.056 82.624 22.192 83.536 22.464C84.464 22.72 85.264 23.08 85.936 23.544L85.336 24.96C84.632 24.496 83.88 24.152 83.08 23.928C82.28 23.688 81.496 23.568 80.728 23.568C79.256 23.568 78.144 23.856 77.392 24.432C76.656 24.992 76.288 25.72 76.288 26.616C76.288 27.288 76.488 27.832 76.888 28.248C77.304 28.648 77.816 28.96 78.424 29.184C79.048 29.392 79.88 29.624 80.92 29.88C82.152 30.184 83.144 30.488 83.896 30.792C84.664 31.08 85.312 31.528 85.84 32.136C86.368 32.728 86.632 33.536 86.632 34.56C86.632 35.408 86.4 36.184 85.936 36.888C85.488 37.576 84.792 38.128 83.848 38.544C82.904 38.944 81.744 39.144 80.368 39.144Z" fill="#07AAF5"/>
<path d="M105.886 26.28C107.47 26.28 108.71 26.736 109.606 27.648C110.518 28.56 110.974 29.904 110.974 31.68V39H109.27V31.848C109.27 30.536 108.95 29.536 108.31 28.848C107.686 28.16 106.798 27.816 105.646 27.816C104.334 27.816 103.302 28.224 102.55 29.04C101.798 29.84 101.422 30.952 101.422 32.376V39H99.7176V31.848C99.7176 30.536 99.3976 29.536 98.7576 28.848C98.1336 28.16 97.2376 27.816 96.0696 27.816C94.7736 27.816 93.7416 28.224 92.9736 29.04C92.2216 29.84 91.8456 30.952 91.8456 32.376V39H90.1416V26.376H91.7736V28.68C92.2216 27.912 92.8456 27.32 93.6456 26.904C94.4456 26.488 95.3656 26.28 96.4056 26.28C97.4616 26.28 98.3736 26.504 99.1416 26.952C99.9256 27.4 100.51 28.064 100.894 28.944C101.358 28.112 102.022 27.464 102.886 27C103.766 26.52 104.766 26.28 105.886 26.28ZM120.011 26.28C121.659 26.28 122.923 26.696 123.803 27.528C124.683 28.344 125.123 29.56 125.123 31.176V39H123.491V37.032C123.107 37.688 122.539 38.2 121.787 38.568C121.051 38.936 120.171 39.12 119.147 39.12C117.739 39.12 116.619 38.784 115.787 38.112C114.955 37.44 114.539 36.552 114.539 35.448C114.539 34.376 114.923 33.512 115.691 32.856C116.475 32.2 117.715 31.872 119.411 31.872H123.419V31.104C123.419 30.016 123.115 29.192 122.507 28.632C121.899 28.056 121.011 27.768 119.843 27.768C119.043 27.768 118.275 27.904 117.539 28.176C116.803 28.432 116.171 28.792 115.643 29.256L114.875 27.984C115.515 27.44 116.283 27.024 117.179 26.736C118.075 26.432 119.019 26.28 120.011 26.28ZM119.411 37.776C120.371 37.776 121.195 37.56 121.883 37.128C122.571 36.68 123.083 36.04 123.419 35.208V33.144H119.459C117.299 33.144 116.219 33.896 116.219 35.4C116.219 36.136 116.499 36.72 117.059 37.152C117.619 37.568 118.403 37.776 119.411 37.776ZM131.383 28.848C131.783 28 132.375 27.36 133.159 26.928C133.959 26.496 134.943 26.28 136.111 26.28V27.936L135.703 27.912C134.375 27.912 133.335 28.32 132.583 29.136C131.831 29.952 131.455 31.096 131.455 32.568V39H129.751V26.376H131.383V28.848ZM146.383 38.232C146.063 38.52 145.663 38.744 145.183 38.904C144.719 39.048 144.231 39.12 143.719 39.12C142.535 39.12 141.623 38.8 140.983 38.16C140.343 37.52 140.023 36.616 140.023 35.448V27.816H137.767V26.376H140.023V23.616H141.727V26.376H145.567V27.816H141.727V35.352C141.727 36.104 141.911 36.68 142.279 37.08C142.663 37.464 143.207 37.656 143.911 37.656C144.263 37.656 144.599 37.6 144.919 37.488C145.255 37.376 145.543 37.216 145.783 37.008L146.383 38.232ZM186.587 33.216H176.027C176.123 34.528 176.627 35.592 177.539 36.408C178.451 37.208 179.603 37.608 180.995 37.608C181.779 37.608 182.499 37.472 183.155 37.2C183.811 36.912 184.379 36.496 184.859 35.952L185.819 37.056C185.259 37.728 184.555 38.24 183.707 38.592C182.875 38.944 181.955 39.12 180.947 39.12C179.651 39.12 178.499 38.848 177.491 38.304C176.499 37.744 175.723 36.976 175.163 36C174.603 35.024 174.323 33.92 174.323 32.688C174.323 31.456 174.587 30.352 175.115 29.376C175.659 28.4 176.395 27.64 177.323 27.096C178.267 26.552 179.323 26.28 180.491 26.28C181.659 26.28 182.707 26.552 183.635 27.096C184.563 27.64 185.291 28.4 185.819 29.376C186.347 30.336 186.611 31.44 186.611 32.688L186.587 33.216ZM180.491 27.744C179.275 27.744 178.251 28.136 177.419 28.92C176.603 29.688 176.139 30.696 176.027 31.944H184.979C184.867 30.696 184.395 29.688 183.563 28.92C182.747 28.136 181.723 27.744 180.491 27.744ZM200.453 26.376L194.837 39H193.085L187.493 26.376H189.269L193.997 37.128L198.773 26.376H200.453ZM213.493 33.216H202.933C203.029 34.528 203.533 35.592 204.445 36.408C205.357 37.208 206.509 37.608 207.901 37.608C208.685 37.608 209.405 37.472 210.061 37.2C210.717 36.912 211.285 36.496 211.765 35.952L212.725 37.056C212.165 37.728 211.461 38.24 210.613 38.592C209.781 38.944 208.861 39.12 207.853 39.12C206.557 39.12 205.405 38.848 204.397 38.304C203.405 37.744 202.629 36.976 202.069 36C201.509 35.024 201.229 33.92 201.229 32.688C201.229 31.456 201.493 30.352 202.021 29.376C202.565 28.4 203.301 27.64 204.229 27.096C205.173 26.552 206.229 26.28 207.397 26.28C208.565 26.28 209.613 26.552 210.541 27.096C211.469 27.64 212.197 28.4 212.725 29.376C213.253 30.336 213.517 31.44 213.517 32.688L213.493 33.216ZM207.397 27.744C206.181 27.744 205.157 28.136 204.325 28.92C203.509 29.688 203.045 30.696 202.933 31.944H211.885C211.773 30.696 211.301 29.688 210.469 28.92C209.653 28.136 208.629 27.744 207.397 27.744ZM216.985 21.192H218.689V39H216.985V21.192ZM228.591 39.12C227.375 39.12 226.279 38.848 225.303 38.304C224.327 37.744 223.559 36.976 222.999 36C222.439 35.024 222.159 33.92 222.159 32.688C222.159 31.456 222.439 30.352 222.999 29.376C223.559 28.4 224.327 27.64 225.303 27.096C226.279 26.552 227.375 26.28 228.591 26.28C229.807 26.28 230.903 26.552 231.879 27.096C232.855 27.64 233.615 28.4 234.159 29.376C234.719 30.352 234.999 31.456 234.999 32.688C234.999 33.92 234.719 35.024 234.159 36C233.615 36.976 232.855 37.744 231.879 38.304C230.903 38.848 229.807 39.12 228.591 39.12ZM228.591 37.608C229.487 37.608 230.287 37.408 230.991 37.008C231.711 36.592 232.271 36.008 232.671 35.256C233.071 34.504 233.271 33.648 233.271 32.688C233.271 31.728 233.071 30.872 232.671 30.12C232.271 29.368 231.711 28.792 230.991 28.392C230.287 27.976 229.487 27.768 228.591 27.768C227.695 27.768 226.887 27.976 226.167 28.392C225.463 28.792 224.903 29.368 224.487 30.12C224.087 30.872 223.887 31.728 223.887 32.688C223.887 33.648 224.087 34.504 224.487 35.256C224.903 36.008 225.463 36.592 226.167 37.008C226.887 37.408 227.695 37.608 228.591 37.608ZM244.982 26.28C246.166 26.28 247.238 26.552 248.198 27.096C249.158 27.624 249.91 28.376 250.454 29.352C250.998 30.328 251.27 31.44 251.27 32.688C251.27 33.952 250.998 35.072 250.454 36.048C249.91 37.024 249.158 37.784 248.198 38.328C247.254 38.856 246.182 39.12 244.982 39.12C243.958 39.12 243.03 38.912 242.198 38.496C241.382 38.064 240.71 37.44 240.182 36.624V43.656H238.478V26.376H240.11V28.872C240.622 28.04 241.294 27.4 242.126 26.952C242.974 26.504 243.926 26.28 244.982 26.28ZM244.862 37.608C245.742 37.608 246.542 37.408 247.262 37.008C247.982 36.592 248.542 36.008 248.942 35.256C249.358 34.504 249.566 33.648 249.566 32.688C249.566 31.728 249.358 30.88 248.942 30.144C248.542 29.392 247.982 28.808 247.262 28.392C246.542 27.976 245.742 27.768 244.862 27.768C243.966 27.768 243.158 27.976 242.438 28.392C241.734 28.808 241.174 29.392 240.758 30.144C240.358 30.88 240.158 31.728 240.158 32.688C240.158 33.648 240.358 34.504 240.758 35.256C241.174 36.008 241.734 36.592 242.438 37.008C243.158 37.408 243.966 37.608 244.862 37.608ZM270.487 26.28C272.071 26.28 273.311 26.736 274.207 27.648C275.119 28.56 275.575 29.904 275.575 31.68V39H273.871V31.848C273.871 30.536 273.551 29.536 272.911 28.848C272.287 28.16 271.399 27.816 270.247 27.816C268.935 27.816 267.903 28.224 267.151 29.04C266.399 29.84 266.023 30.952 266.023 32.376V39H264.319V31.848C264.319 30.536 263.999 29.536 263.359 28.848C262.735 28.16 261.839 27.816 260.671 27.816C259.375 27.816 258.343 28.224 257.575 29.04C256.823 29.84 256.447 30.952 256.447 32.376V39H254.743V26.376H256.375V28.68C256.823 27.912 257.447 27.32 258.247 26.904C259.047 26.488 259.967 26.28 261.007 26.28C262.063 26.28 262.975 26.504 263.743 26.952C264.527 27.4 265.111 28.064 265.495 28.944C265.959 28.112 266.623 27.464 267.487 27C268.367 26.52 269.367 26.28 270.487 26.28ZM291.235 33.216H280.675C280.771 34.528 281.275 35.592 282.187 36.408C283.099 37.208 284.251 37.608 285.643 37.608C286.427 37.608 287.147 37.472 287.803 37.2C288.459 36.912 289.027 36.496 289.507 35.952L290.467 37.056C289.907 37.728 289.203 38.24 288.355 38.592C287.523 38.944 286.603 39.12 285.595 39.12C284.299 39.12 283.147 38.848 282.139 38.304C281.147 37.744 280.371 36.976 279.811 36C279.251 35.024 278.971 33.92 278.971 32.688C278.971 31.456 279.235 30.352 279.763 29.376C280.307 28.4 281.043 27.64 281.971 27.096C282.915 26.552 283.971 26.28 285.139 26.28C286.307 26.28 287.355 26.552 288.283 27.096C289.211 27.64 289.939 28.4 290.467 29.376C290.995 30.336 291.259 31.44 291.259 32.688L291.235 33.216ZM285.139 27.744C283.923 27.744 282.899 28.136 282.067 28.92C281.251 29.688 280.787 30.696 280.675 31.944H289.627C289.515 30.696 289.043 29.688 288.211 28.92C287.395 28.136 286.371 27.744 285.139 27.744ZM301.16 26.28C302.744 26.28 304 26.744 304.928 27.672C305.872 28.584 306.344 29.92 306.344 31.68V39H304.64V31.848C304.64 30.536 304.312 29.536 303.656 28.848C303 28.16 302.064 27.816 300.848 27.816C299.488 27.816 298.408 28.224 297.608 29.04C296.824 29.84 296.432 30.952 296.432 32.376V39H294.728V26.376H296.36V28.704C296.824 27.936 297.464 27.344 298.28 26.928C299.112 26.496 300.072 26.28 301.16 26.28ZM317.618 38.232C317.298 38.52 316.898 38.744 316.418 38.904C315.954 39.048 315.466 39.12 314.954 39.12C313.77 39.12 312.858 38.8 312.218 38.16C311.578 37.52 311.258 36.616 311.258 35.448V27.816H309.002V26.376H311.258V23.616H312.962V26.376H316.802V27.816H312.962V35.352C312.962 36.104 313.146 36.68 313.514 37.08C313.898 37.464 314.442 37.656 315.146 37.656C315.498 37.656 315.834 37.6 316.154 37.488C316.49 37.376 316.778 37.216 317.018 37.008L317.618 38.232Z" fill="#7E8388"/>
<path d="M156.127 22.2H162.967C164.743 22.2 166.311 22.56 167.671 23.28C169.031 23.984 170.087 24.976 170.839 26.256C171.591 27.52 171.967 28.968 171.967 30.6C171.967 32.232 171.591 33.688 170.839 34.968C170.087 36.232 169.031 37.224 167.671 37.944C166.311 38.648 164.743 39 162.967 39H156.127V22.2ZM162.871 37.464C164.343 37.464 165.631 37.176 166.735 36.6C167.839 36.008 168.695 35.2 169.303 34.176C169.911 33.136 170.215 31.944 170.215 30.6C170.215 29.256 169.911 28.072 169.303 27.048C168.695 26.008 167.839 25.2 166.735 24.624C165.631 24.032 164.343 23.736 162.871 23.736H157.903V37.464H162.871Z" fill="#F44459"/>
<circle cx="30.5" cy="30.5" r="30.5" fill="#27292E"/>
<circle cx="21.5" cy="21.5" r="9.5" fill="#07AAF5"/>
<circle cx="40.5" cy="40.5" r="9.5" fill="#F44459"/>
</svg>
