<svg width="60" height="33" viewBox="0 0 60 33" fill="none" xmlns="http://www.w3.org/2000/svg">
<path d="M30 31.9979C46.5685 31.9979 60 24.8349 60 15.999C60 7.16298 46.5685 0 30 0C13.4315 0 0 7.16298 0 15.999C0 24.8349 13.4315 31.9979 30 31.9979Z" fill="url(#paint0_radial_387:135)"/>
<path d="M30 30.8094C45.9213 30.8094 58.8281 24.1786 58.8281 15.9991C58.8281 7.81953 45.9213 1.18872 30 1.18872C14.0787 1.18872 1.17188 7.81953 1.17188 15.9991C1.17188 24.1786 14.0787 30.8094 30 30.8094Z" fill="#6181B6"/>
<path d="M35.8361 20.8009L37.2658 13.3363C37.5939 11.6484 37.3127 10.3885 36.4689 9.60399C35.6486 8.84327 34.2423 8.46291 32.1798 8.46291H29.6955L30.3986 4.75438C30.422 4.61174 30.3986 4.46911 30.3048 4.35025C30.2111 4.23138 30.0939 4.18384 29.9533 4.18384H26.5314C26.297 4.18384 26.1095 4.35025 26.0627 4.5642L24.5392 12.4805C24.3986 11.5771 24.0705 10.8164 23.508 10.1983C22.5002 9.03345 20.9298 8.43914 18.797 8.43914H12.2111C11.9767 8.43914 11.7892 8.60554 11.7423 8.8195L8.67203 24.8898C8.64859 25.0324 8.67203 25.1751 8.76578 25.2939C8.85953 25.4128 8.97672 25.4603 9.11734 25.4603H12.5627C12.797 25.4603 12.9845 25.2939 13.0314 25.08L13.7814 21.205H16.3361C17.672 21.205 18.8205 21.0624 19.6877 20.7771C20.6017 20.4681 21.422 19.9689 22.1486 19.2794C22.7345 18.7327 23.2267 18.1146 23.6017 17.449L22.9923 20.6583C22.9689 20.8009 22.9923 20.9435 23.0861 21.0624C23.1798 21.1813 23.297 21.2288 23.4377 21.2288H26.8595C27.0939 21.2288 27.2814 21.0624 27.3283 20.8484L29.0158 12.0526H31.3595C32.3673 12.0526 32.6486 12.2428 32.7423 12.3378C32.8127 12.4092 32.9533 12.6944 32.7892 13.574L31.4298 20.682C31.4064 20.8247 31.4298 20.9673 31.5236 21.0862C31.6173 21.205 31.7345 21.2526 31.8752 21.2526H35.3908C35.6017 21.1813 35.7892 21.0148 35.8361 20.8009ZM19.9923 14.62C19.7814 15.7373 19.383 16.5456 18.797 16.9973C18.2111 17.449 17.2502 17.6867 15.9845 17.6867H14.4611L15.5627 11.9337H17.5314C18.9845 11.9337 19.5705 12.2428 19.8048 12.5043C20.1095 12.8846 20.1798 13.6216 19.9923 14.62Z" fill="white"/>
<path d="M50.4616 10.1984C49.4538 9.03352 47.8834 8.43921 45.7506 8.43921H39.1178C38.8834 8.43921 38.6959 8.60562 38.6491 8.81957L35.5788 24.8661C35.5553 25.0087 35.5788 25.1514 35.6725 25.2702C35.7663 25.3891 35.8835 25.4366 36.0241 25.4366H39.4694C39.7038 25.4366 39.8913 25.2702 39.9381 25.0563L40.6881 21.1813H43.2428C44.5788 21.1813 45.7272 21.0387 46.5944 20.7534C47.5084 20.4444 48.3288 19.9452 49.0553 19.2557C49.6647 18.6852 50.1803 18.0433 50.5553 17.3539C50.9303 16.6645 51.2116 15.9038 51.3756 15.0718C51.7741 13.0035 51.4694 11.387 50.4616 10.1984ZM46.8756 14.6201C46.6647 15.7374 46.2663 16.5457 45.6803 16.9973C45.0944 17.449 44.1334 17.6868 42.8678 17.6868H41.3444L42.4459 11.9338H44.4147C45.8678 11.9338 46.4538 12.2428 46.6881 12.5043C47.0163 12.8847 47.0866 13.6216 46.8756 14.6201Z" fill="white"/>
<path d="M17.5312 11.4582C18.8438 11.4582 19.7109 11.6959 20.1562 12.1952C20.6016 12.6944 20.6953 13.5264 20.4609 14.7151C20.2266 15.9512 19.7578 16.8546 19.0781 17.3776C18.3984 17.9006 17.3672 18.1621 15.9844 18.1621H13.8984L15.1875 11.4582H17.5312ZM9.14062 24.9611H12.5859L13.4062 20.7058H16.3594C17.6719 20.7058 18.7266 20.5631 19.5703 20.2779C20.4141 19.9926 21.1641 19.5409 21.8672 18.8753C22.4531 18.3285 22.9219 17.7342 23.2734 17.0923C23.625 16.4505 23.8828 15.7373 24.0234 14.9528C24.3984 13.051 24.1172 11.5771 23.2031 10.5073C22.2891 9.43755 20.8359 8.91455 18.8438 8.91455H12.2109L9.14062 24.9611Z" fill="#000004"/>
<path d="M26.5542 4.65918H29.9761L29.1558 8.91448H32.2026C34.1245 8.91448 35.437 9.24729 36.1636 9.9367C36.8901 10.6261 37.1011 11.7196 36.8198 13.2411L35.3901 20.7057H31.9214L33.2808 13.5977C33.4448 12.7894 33.3745 12.2426 33.1167 11.9574C32.8589 11.6721 32.2729 11.5057 31.4058 11.5057H28.6636L26.9058 20.7057H23.4839L26.5542 4.65918Z" fill="#000004"/>
<path d="M44.4136 11.4582C45.7261 11.4582 46.5933 11.6959 47.0386 12.1952C47.4839 12.6944 47.5776 13.5264 47.3433 14.7151C47.1089 15.9512 46.6401 16.8546 45.9605 17.3776C45.2808 17.9006 44.2495 18.1621 42.8667 18.1621H40.7808L42.0698 11.4582H44.4136ZM36.0229 24.9611H39.4683L40.2886 20.7058H43.2417C44.5542 20.7058 45.6089 20.5631 46.4526 20.2779C47.2964 19.9926 48.0464 19.5409 48.7495 18.8753C49.3355 18.3285 49.8042 17.7342 50.1558 17.0923C50.5073 16.4505 50.7651 15.7373 50.9058 14.9528C51.2808 13.051 50.9995 11.5771 50.0855 10.5073C49.1714 9.43755 47.7183 8.91455 45.7261 8.91455H39.0933L36.0229 24.9611Z" fill="#000004"/>
<defs>
<radialGradient id="paint0_radial_387:135" cx="0" cy="0" r="1" gradientUnits="userSpaceOnUse" gradientTransform="translate(18.0121 5.62638) scale(39.3974 39.9607)">
<stop stop-color="white"/>
<stop offset="0.5" stop-color="#4C6B97"/>
<stop offset="1" stop-color="#231F20"/>
</radialGradient>
</defs>
</svg>
