<svg width="60" height="60" viewBox="0 0 60 60" fill="none" xmlns="http://www.w3.org/2000/svg">
<path d="M29.7471 0.017334C14.5521 0.017334 15.5009 6.63263 15.5009 6.63263L15.5177 13.4863H30.018V15.5439H9.75844C9.75844 15.5439 0.0351562 14.4369 0.0351562 29.8286C0.0351562 45.2209 8.52187 44.675 8.52187 44.675H13.5867V37.5324C13.5867 37.5324 13.3137 29.0124 21.938 29.0124H36.3197C36.3197 29.0124 44.3998 29.1435 44.3998 21.1726V7.99333C44.3998 7.99333 45.627 0.017334 29.7471 0.017334ZM21.7516 4.62628C22.0943 4.62597 22.4336 4.69349 22.7503 4.82499C23.0669 4.95649 23.3546 5.14938 23.5969 5.39262C23.8392 5.63586 24.0313 5.92468 24.1623 6.24255C24.2933 6.56042 24.3605 6.9011 24.3602 7.2451C24.3605 7.58909 24.2933 7.92978 24.1623 8.24765C24.0313 8.56552 23.8392 8.85434 23.5969 9.09758C23.3546 9.34082 23.0669 9.53371 22.7503 9.66521C22.4336 9.79671 22.0943 9.86423 21.7516 9.86392C21.409 9.86423 21.0696 9.79671 20.753 9.66521C20.4364 9.53371 20.1487 9.34082 19.9064 9.09758C19.6641 8.85434 19.472 8.56552 19.341 8.24765C19.21 7.92978 19.1427 7.58909 19.143 7.2451C19.1427 6.9011 19.21 6.56042 19.341 6.24255C19.472 5.92468 19.6641 5.63586 19.9064 5.39262C20.1487 5.14938 20.4364 4.95649 20.753 4.82499C21.0696 4.69349 21.409 4.62597 21.7516 4.62628Z" fill="url(#paint0_linear_387:132)"/>
<path d="M30.1773 59.7943C45.3723 59.7943 44.4236 53.179 44.4236 53.179L44.4067 46.3256H29.9061V44.268H50.1658C50.1658 44.268 59.889 45.375 59.889 29.9828C59.889 14.5908 51.4023 15.1367 51.4023 15.1367H46.3375V22.279C46.3375 22.279 46.6105 30.799 37.9862 30.799H23.6045C23.6045 30.799 15.5244 30.668 15.5244 38.639V51.8185C15.5244 51.8185 14.2975 59.7943 30.1771 59.7943H30.1773ZM38.1728 55.1858C37.8301 55.1861 37.4908 55.1186 37.1742 54.9871C36.8575 54.8556 36.5698 54.6627 36.3275 54.4195C36.0852 54.1763 35.8931 53.8874 35.7621 53.5696C35.6311 53.2517 35.5639 52.911 35.5642 52.567C35.5638 52.223 35.6311 51.8823 35.7621 51.5644C35.893 51.2465 36.0852 50.9577 36.3275 50.7144C36.5698 50.4711 36.8575 50.2782 37.1741 50.1467C37.4907 50.0152 37.8301 49.9477 38.1728 49.948C38.5154 49.9477 38.8548 50.0152 39.1714 50.1467C39.488 50.2782 39.7757 50.4711 40.018 50.7143C40.2603 50.9575 40.4525 51.2464 40.5834 51.5642C40.7144 51.8821 40.7817 52.2228 40.7814 52.5668C40.7817 52.9108 40.7144 53.2515 40.5834 53.5693C40.4525 53.8872 40.2603 54.176 40.018 54.4193C39.7757 54.6625 39.488 54.8554 39.1714 54.9869C38.8548 55.1184 38.5154 55.1859 38.1728 55.1856V55.1858Z" fill="url(#paint1_linear_387:132)"/>
<defs>
<linearGradient id="paint0_linear_387:132" x1="5.78722" y1="5.39396" x2="35.5645" y2="34.7591" gradientUnits="userSpaceOnUse">
<stop stop-color="#387EB8"/>
<stop offset="1" stop-color="#366994"/>
</linearGradient>
<linearGradient id="paint1_linear_387:132" x1="23.9927" y1="24.3249" x2="55.9644" y2="54.4306" gradientUnits="userSpaceOnUse">
<stop stop-color="#FFE052"/>
<stop offset="1" stop-color="#FFC331"/>
</linearGradient>
</defs>
</svg>
