<svg width="60" height="54" viewBox="0 0 60 54" fill="none" xmlns="http://www.w3.org/2000/svg">
<g clip-path="url(#clip0_387:174)">
<path d="M49.332 17.4039C48.6934 17.1835 48.0495 16.9794 47.4007 16.7917C47.5097 16.3437 47.61 15.9012 47.6991 15.4665C49.1611 8.32792 48.2053 2.5769 44.9407 0.683394C41.8106 -1.13185 36.6916 0.760954 31.5218 5.28656C31.0123 5.73338 30.5141 6.19307 30.0277 6.6652C29.702 6.35125 29.3706 6.04339 29.0337 5.74179C23.6154 0.902873 18.1845 -1.13656 14.9234 0.762369C11.7961 2.58327 10.8701 7.98962 12.1863 14.755C12.3173 15.4251 12.4651 16.0917 12.6298 16.7542C11.861 16.9739 11.1192 17.2077 10.4093 17.4567C4.0568 19.6845 0 23.1756 0 26.7969C0 30.537 4.35516 34.2885 10.9716 36.5632C11.508 36.7468 12.0488 36.917 12.5937 37.0736C12.4167 37.7871 12.2596 38.5054 12.1226 39.2278C10.8677 45.8758 11.8477 51.1544 14.9665 52.9638C18.1877 54.8323 23.5943 52.9119 28.8586 48.283C29.2855 47.9067 29.7029 47.5197 30.1106 47.1225C30.6374 47.6337 31.1782 48.13 31.7325 48.6109C36.832 53.0246 41.8683 54.8068 44.9841 52.9925C48.2023 51.1186 49.2483 45.448 47.8903 38.5489C47.7833 38.0084 47.6634 37.4705 47.5305 36.9359C47.9102 36.8227 48.2829 36.7063 48.6462 36.5851C55.5246 34.2929 60 30.587 60 26.7969C60 23.1624 55.8122 19.6477 49.332 17.4039ZM47.8402 34.1381C47.512 34.2472 47.1755 34.3526 46.8323 34.4551C46.073 32.0371 45.0483 29.466 43.7941 26.8094C44.9909 24.2162 45.9762 21.678 46.7142 19.2757C47.328 19.4544 47.9236 19.6428 48.4978 19.8415C54.0502 21.7642 57.4369 24.6066 57.4369 26.7969C57.4369 29.1299 53.7792 32.1585 47.8402 34.1381ZM45.3759 39.0496C45.9764 42.1001 46.062 44.8583 45.6642 47.0147C45.307 48.9523 44.5884 50.244 43.6997 50.7614C41.809 51.8624 37.7653 50.4314 33.4043 46.6566C32.8888 46.2095 32.3857 45.748 31.8956 45.2728C33.5864 43.413 35.276 41.251 36.9251 38.8497C39.8257 38.5908 42.566 38.1674 45.0511 37.5896C45.1734 38.0863 45.2822 38.5734 45.3759 39.0496ZM20.4553 50.5712C18.608 51.2273 17.1366 51.2461 16.2471 50.7303C14.3545 49.6324 13.5677 45.394 14.6409 39.7087C14.7685 39.0369 14.9146 38.3688 15.079 37.7051C17.5366 38.252 20.257 38.6453 23.1645 38.8824C24.8248 41.2321 26.5631 43.3918 28.3151 45.2829C27.9428 45.6453 27.5616 45.9984 27.172 46.3419C24.844 48.3886 22.5112 49.8408 20.4553 50.5712ZM11.8008 34.1237C8.87508 33.1177 6.45891 31.8105 4.80281 30.384C3.31453 29.1023 2.56336 27.8295 2.56336 26.7969C2.56336 24.5993 5.82047 21.7963 11.253 19.8912C11.9123 19.6602 12.6023 19.4421 13.3184 19.2375C14.0693 21.694 15.0541 24.2624 16.2427 26.8596C15.0387 29.4953 14.0398 32.1047 13.2816 34.5902C12.7842 34.4469 12.2905 34.2914 11.8008 34.1237ZM14.7019 14.2597C13.5743 8.46347 14.3231 4.0911 16.2077 2.9937C18.2149 1.82487 22.6535 3.49136 27.3319 7.66971C27.6369 7.9428 27.9371 8.22142 28.2321 8.50543C26.4888 10.3883 24.7664 12.532 23.1209 14.8677C20.299 15.1308 17.5978 15.5533 15.1144 16.1193C14.9614 15.5031 14.8238 14.8831 14.7019 14.26V14.2597ZM40.5832 20.6881C39.9966 19.6689 39.3883 18.6626 38.7586 17.6698C40.673 17.9133 42.5072 18.2365 44.2296 18.6316C43.7126 20.2988 43.068 22.0417 42.3094 23.8287C41.7548 22.7703 41.1793 21.7233 40.5832 20.6881ZM30.0288 10.348C31.211 11.6364 32.3951 13.0747 33.5597 14.6353C31.1972 14.5231 28.8307 14.5226 26.4682 14.6339C27.634 13.0876 28.8281 11.6512 30.0288 10.348ZM19.4067 20.7057C18.8181 21.7326 18.2533 22.7732 17.7129 23.8265C16.9666 22.046 16.328 20.2951 15.8065 18.6043C17.5184 18.2191 19.3439 17.9041 21.2461 17.6651C20.6094 18.6639 19.9961 19.6777 19.4067 20.7055V20.7057ZM21.3007 36.1122C19.3355 35.8915 17.4825 35.5928 15.7711 35.218C16.3008 33.4971 16.9535 31.7089 17.7159 29.8902C18.2585 30.9443 18.8256 31.9855 19.4168 33.0128C20.0248 34.069 20.6543 35.1034 21.3007 36.1122ZM30.0996 43.4274C28.8846 42.1091 27.6729 40.6505 26.4895 39.0819C27.6384 39.1271 28.8096 39.1502 30 39.1502C31.223 39.1502 32.4319 39.1227 33.6218 39.0694C32.4534 40.6663 31.2738 42.127 30.0996 43.4274ZM42.3335 29.7973C43.1355 31.6361 43.8115 33.4148 44.3482 35.1063C42.6087 35.5056 40.7304 35.8272 38.7513 36.066C39.3855 35.0548 39.9996 34.031 40.5933 32.9952C41.1969 31.9423 41.7771 30.8761 42.3335 29.7973ZM38.373 31.707C37.4642 33.2951 36.5042 34.853 35.4947 36.3783C33.666 36.5086 31.8333 36.5733 30 36.5724C28.1327 36.5724 26.3166 36.5139 24.5677 36.3998C23.5318 34.878 22.5535 33.3174 21.6349 31.7212H21.6352C20.7209 30.1335 19.8669 28.5114 19.0751 26.8585C19.8649 25.2052 20.7163 23.5823 21.6274 21.9934L21.6272 21.9936C22.538 20.4043 23.5084 18.8503 24.5365 17.335C26.3208 17.1993 28.1505 17.1285 29.9998 17.1285H30C31.8577 17.1285 33.6898 17.2 35.4736 17.3367C36.4913 18.8497 37.4555 20.3983 38.3646 21.9797C39.2788 23.5651 40.1414 25.1801 40.9512 26.8219C40.1497 28.4806 39.2898 30.11 38.373 31.707ZM43.6605 2.91685C45.6696 4.08237 46.451 8.78243 45.1887 14.946C45.108 15.3392 45.0176 15.7398 44.9191 16.1459C42.4296 15.5679 39.7266 15.1381 36.8965 14.871C35.2479 12.5096 33.5395 10.3626 31.8246 8.50402C32.2741 8.06824 32.7342 7.64377 33.2046 7.23099C37.6343 3.35368 41.7743 1.82275 43.6605 2.91685ZM30 21.4078C32.959 21.4078 35.3578 23.8206 35.3578 26.7969C35.3578 29.7732 32.959 32.1861 30 32.1861C27.041 32.1861 24.6422 29.7732 24.6422 26.7969C24.6422 23.8206 27.041 21.4078 30 21.4078Z" fill="#00D8FF"/>
</g>
<defs>
<clipPath id="clip0_387:174">
<rect width="60" height="53.75" fill="white"/>
</clipPath>
</defs>
</svg>
