<svg width="60" height="60" viewBox="0 0 60 60" fill="none" xmlns="http://www.w3.org/2000/svg">
<path d="M54.394 9.43124L43.5827 4.22624C42.9722 3.93186 42.2852 3.83471 41.617 3.94827C40.9487 4.06182 40.3324 4.38045 39.8534 4.85999L4.46274 37.125C4.03335 37.5146 3.77631 38.0588 3.74818 38.638C3.72005 39.2171 3.92313 39.7837 4.31274 40.2131C4.35961 40.2637 4.40649 40.3125 4.45711 40.3575L7.34649 42.9825C7.72404 43.3261 8.21003 43.5266 8.72005 43.5492C9.23006 43.5718 9.73188 43.4151 10.1384 43.1062L52.7665 10.7812C53.0885 10.5369 53.4723 10.3873 53.8747 10.3493C54.2771 10.3112 54.6821 10.3863 55.0441 10.5659C55.4062 10.7456 55.7109 11.0228 55.924 11.3662C56.1371 11.7097 56.2501 12.1058 56.2502 12.51V12.3844C56.2502 11.7673 56.076 11.1628 55.7476 10.6404C55.4192 10.1179 54.95 9.69882 54.394 9.43124Z" fill="#0065A9"/>
<path d="M54.394 50.5688L43.5827 55.7757C42.972 56.0692 42.2852 56.1659 41.6172 56.0524C40.9491 55.9388 40.3328 55.6207 39.8534 55.1419L4.46274 22.875C4.03335 22.4854 3.77631 21.9412 3.74818 21.362C3.72005 20.7829 3.92313 20.2163 4.31274 19.7869C4.35961 19.7363 4.40649 19.6875 4.45711 19.6425L7.34649 17.0175C7.72443 16.6725 8.21153 16.471 8.7228 16.4484C9.23407 16.4258 9.73705 16.5834 10.144 16.8938L52.7665 49.2188C53.0885 49.4631 53.4723 49.6127 53.8747 49.6507C54.2771 49.6888 54.6821 49.6137 55.0441 49.4341C55.4062 49.2544 55.7109 48.9772 55.924 48.6338C56.1371 48.2903 56.2501 47.8942 56.2502 47.49V47.625C56.2482 48.2404 56.0731 48.8429 55.7448 49.3634C55.4166 49.884 54.9484 50.3017 54.394 50.5688Z" fill="#007ACC"/>
<path d="M43.5826 55.7756C42.9719 56.0692 42.2851 56.1658 41.617 56.0523C40.949 55.9388 40.3327 55.6207 39.8532 55.1419C40.1225 55.4076 40.4642 55.588 40.8355 55.6604C41.2068 55.7327 41.5912 55.6939 41.9406 55.5488C42.29 55.4036 42.5887 55.1586 42.7994 54.8444C43.0101 54.5302 43.1234 54.1608 43.1251 53.7825V6.21748C43.1254 5.8374 43.0129 5.46577 42.8018 5.14968C42.5908 4.83359 42.2906 4.58725 41.9394 4.44188C41.5883 4.29651 41.2018 4.25864 40.8291 4.33307C40.4564 4.4075 40.1141 4.59088 39.8457 4.85998C40.3248 4.38062 40.941 4.06197 41.6091 3.9481C42.2772 3.83423 42.9642 3.93076 43.5751 4.22435L54.3845 9.42185C54.9422 9.6881 55.4134 10.1066 55.7435 10.6292C56.0736 11.1517 56.2492 11.7569 56.2501 12.375V47.625C56.2502 48.2426 56.0759 48.8476 55.7471 49.3704C55.4184 49.8932 54.9486 50.3125 54.392 50.58L43.5826 55.7756Z" fill="#1F9CF0"/>
</svg>
