<svg width="150" height="108" viewBox="0 0 150 108" fill="none" xmlns="http://www.w3.org/2000/svg">
<path d="M13.1839 72.8433C13.8124 72.9841 14.6659 73.7117 14.9123 74.3755L16.1621 77.205C16.4442 77.7481 16.3906 78.8243 16.055 79.3405L11.0664 86.9977C9.99865 88.6405 10.22 90.9671 11.6556 92.4758L15.88 96.4384C17.3512 97.6655 19.9473 97.8867 21.6399 96.9246L29.796 92.2411C30.3066 91.9461 31.4029 91.8421 32.1707 92.1807L35.181 93.3474C35.788 93.5452 36.5629 94.3431 36.7129 94.9332L38.9519 103.663C39.4268 105.514 41.3087 107.036 43.3299 107.21C43.3299 107.21 44.569 107.317 46.4259 107.317C48.2828 107.317 49.5219 107.21 49.5255 107.21C50.5486 107.097 51.5121 106.698 52.2918 106.066C53.0715 105.434 53.6316 104.597 53.8999 103.663L56.1424 94.9332C56.2924 94.3465 57.0637 93.5452 57.7708 93.3139L60.7847 92.1405C61.3167 91.8958 62.5487 91.9461 63.0593 92.2411L71.2154 96.9246C71.9332 97.3369 72.7902 97.5548 73.7008 97.5548C74.9327 97.5548 76.1254 97.1492 77.0503 96.3747L81.2712 92.4087C81.9403 91.6672 82.3492 90.7498 82.4419 89.7818C82.5346 88.8139 82.3065 87.8427 81.789 87.0011L76.8004 79.3439C76.4647 78.8276 76.4111 77.7514 76.7361 77.1145L77.9788 74.2883C78.1894 73.7184 79.0393 72.9909 79.6678 72.8501L88.9666 70.748C89.9613 70.4951 90.8526 69.9685 91.5259 69.236C92.1992 68.5035 92.6237 67.5987 92.7446 66.6378C92.7446 66.6378 92.8589 65.4745 92.8589 63.7312C92.8589 61.9879 92.7446 60.8245 92.7446 60.8212C92.6232 59.8605 92.1986 58.9558 91.5254 58.2234C90.8522 57.491 89.9611 56.9643 88.9666 56.711L79.6714 54.6123C79.0429 54.4715 78.1894 53.744 77.9431 53.0802L76.6932 50.2507C76.4111 49.7075 76.4647 48.6314 76.8004 48.1151L81.789 40.4579C82.8567 38.8152 82.6353 36.4885 81.1998 34.9799L76.9753 31.0172C75.5005 29.7868 72.9009 29.5656 71.2154 30.5311L63.0593 35.2146C62.5487 35.5062 61.4488 35.6169 60.6847 35.2749L57.6744 34.1082C57.0673 33.9104 56.296 33.1125 56.146 32.5225L53.9034 23.7925C53.634 22.8586 53.0731 22.0218 52.2929 21.3897C51.5127 20.7576 50.5489 20.3591 49.5255 20.2455C49.5183 20.2489 48.2792 20.1416 46.4223 20.1416C44.5654 20.1416 43.3263 20.2489 43.3227 20.2489C42.2995 20.3629 41.3359 20.7615 40.5557 21.3936C39.7756 22.0256 39.2146 22.8622 38.9447 23.7959L36.7093 32.5191C36.5594 33.1092 35.7845 33.9104 35.0774 34.1418L32.0635 35.3151C31.5279 35.5599 30.2995 35.5062 29.7888 35.2146L21.6364 30.5311C19.9473 29.5656 17.4048 29.7332 15.8014 31.0809L11.5806 35.0469C10.9114 35.7884 10.5026 36.7059 10.4099 37.6738C10.3172 38.6417 10.5452 39.6129 11.0628 40.4546L16.0514 48.1117C16.3871 48.628 16.4406 49.7042 16.1157 50.3412L14.873 53.1674C14.6623 53.7373 13.8124 54.4648 13.1839 54.6056L3.88519 56.7076C2.89047 56.9606 1.99911 57.4871 1.32581 58.2196C0.652518 58.9521 0.228086 59.857 0.107128 60.8178C0.11427 60.8178 0 61.9812 0 63.7245C0 65.4678 0.11427 66.6311 0.11427 66.6345C0.235693 67.5951 0.660291 68.4998 1.33352 69.2322C2.00674 69.9646 2.89784 70.4913 3.89233 70.7447L13.1839 72.8433ZM3.57095 63.7245C3.57095 62.189 3.66736 61.1531 3.67093 61.1196C3.72783 60.8587 3.8548 60.6158 4.03979 60.414C4.22479 60.2121 4.46167 60.058 4.72793 59.9663L14.0267 57.8643C15.83 57.4552 17.6476 55.9064 18.2118 54.3542L19.3688 51.7157C20.183 50.1501 20.0687 47.8502 19.101 46.3617L14.1124 38.7079C13.8731 38.3358 13.941 37.5982 14.1767 37.3468L18.2511 33.5182C18.5761 33.2466 19.4045 33.1796 19.7759 33.3908L27.9319 38.0743C29.4782 38.9627 32.1278 39.023 33.5312 38.3693L36.3451 37.2764C38.0984 36.7098 39.7482 35.0034 40.1839 33.307L42.4193 24.5803C42.5162 24.3296 42.68 24.1063 42.8951 23.932C43.1102 23.7577 43.3693 23.6381 43.6477 23.5846C43.6834 23.5846 44.7868 23.4941 46.4223 23.4941C48.0578 23.4941 49.1612 23.5846 49.1969 23.588C49.4748 23.6414 49.7335 23.7606 49.9485 23.9343C50.1635 24.108 50.3276 24.3304 50.4253 24.5803L52.6643 33.307C53.1 35 54.7462 36.7098 56.4031 37.2395L59.2134 38.3257C60.8454 39.0767 63.3736 38.9593 64.9162 38.0743L73.0687 33.3908C73.4401 33.1796 74.3185 33.2902 74.5185 33.4511L78.5965 37.2764C78.9036 37.6016 78.9715 38.3358 78.7322 38.7079L73.7436 46.3651C72.7759 47.8502 72.6616 50.1534 73.4294 51.6218L74.5935 54.2636C75.197 55.9097 77.0146 57.4586 78.8215 57.8676L88.1167 59.9663C88.3838 60.0573 88.6216 60.2111 88.8073 60.413C88.993 60.6149 89.1203 60.8582 89.1773 61.1196C89.1773 61.1531 89.2737 62.189 89.2737 63.7245C89.2737 65.2599 89.1773 66.2959 89.1737 66.3294C89.1168 66.5903 88.9898 66.8331 88.8048 67.035C88.6198 67.2368 88.3829 67.3909 88.1167 67.4827L78.8179 69.5847C77.0146 69.9937 75.197 71.5426 74.6328 73.0948L73.4758 75.7332C72.6616 77.2989 72.7759 79.5987 73.7436 81.0872L78.7322 88.741C78.9715 89.1132 78.9036 89.8507 78.668 90.1022L74.5935 93.9307C74.3354 94.1119 74.0193 94.2053 73.6972 94.1956C73.4796 94.2023 73.2641 94.1548 73.0723 94.0581L64.9162 89.3747C63.3736 88.4896 60.7239 88.4259 59.317 89.0796L56.5031 90.1726C54.7498 90.7391 53.1 92.4489 52.6679 94.142L50.4289 102.869C50.332 103.119 50.1682 103.343 49.9531 103.517C49.738 103.691 49.4789 103.811 49.2005 103.864C49.1612 103.864 48.0578 103.955 46.4223 103.955C44.7868 103.955 43.6834 103.864 43.6477 103.861C43.3698 103.808 43.1111 103.688 42.8961 103.515C42.6811 103.341 42.517 103.119 42.4193 102.869L40.1803 94.1386C39.7446 92.4456 38.0949 90.7391 36.4415 90.2094L33.6312 89.1232C32.8321 88.7744 31.9591 88.6002 31.0779 88.6136C29.9031 88.6136 28.7854 88.8852 27.9284 89.378L19.7759 94.0615C19.4045 94.2727 18.5225 94.1587 18.3261 94.0012L14.2481 90.1726C13.941 89.8474 13.8731 89.1132 14.1124 88.741L19.101 81.0839C20.0687 79.5987 20.183 77.2955 19.4152 75.8271L18.2511 73.1853C17.6476 71.5392 15.83 69.9903 14.0231 69.5813L4.72793 67.4827C4.46082 67.3917 4.22304 67.2379 4.03735 67.036C3.85166 66.834 3.72427 66.5907 3.66736 66.3294C3.66736 66.2959 3.57095 65.2599 3.57095 63.7245Z" fill="black" fill-opacity="0.15"/>
<path d="M46.4224 82.1635C57.2531 82.1635 66.0626 73.8928 66.0626 63.7246C66.0626 53.5563 57.2531 45.2856 46.4224 45.2856C35.5918 45.2856 26.7822 53.5563 26.7822 63.7246C26.7822 73.8928 35.5918 82.1635 46.4224 82.1635ZM46.4224 48.6382C55.2819 48.6382 62.4917 55.4069 62.4917 63.7246C62.4917 72.0422 55.2819 78.8109 46.4224 78.8109C37.5629 78.8109 30.3532 72.0422 30.3532 63.7246C30.3532 55.4069 37.5629 48.6382 46.4224 48.6382Z" fill="black" fill-opacity="0.15"/>
<path d="M98.1191 17.8422C97.8793 18.0948 97.5514 18.2589 97.1943 18.3048L90.5487 18.2445C89.7286 18.2649 88.9334 18.5135 88.264 18.9587C87.5946 19.404 87.081 20.0258 86.7885 20.7454C86.7885 20.7454 86.4957 21.5266 86.1743 22.7234C85.8529 23.9203 85.7172 24.7383 85.7172 24.7383C85.4673 26.2503 86.3636 27.9232 87.8027 28.6306L93.6626 31.5138C93.9767 31.7372 94.1886 32.0644 94.2554 32.429L94.5875 34.5579C94.6086 34.8942 94.5023 35.2267 94.2875 35.4966L89.5667 39.8414C88.3847 40.9277 88.0741 42.785 88.8882 44.2433L91.0272 47.5958C91.9307 48.843 93.8876 49.48 95.4231 49.0307L101.936 47.16C102.29 47.16 102.644 47.2874 102.844 47.4383L104.683 48.7122C104.95 48.9385 105.125 49.2458 105.175 49.5805L105.111 55.7894C105.097 57.3182 106.239 58.8503 107.775 59.3532C107.775 59.3532 108.607 59.6281 109.882 59.9298C111.157 60.2315 112.028 60.3589 112.028 60.3589C112.121 60.3723 112.492 60.3991 112.585 60.3991C113.317 60.3906 114.034 60.2015 114.664 59.8508C115.294 59.5001 115.815 59.0002 116.174 58.401L119.245 52.8995C119.483 52.6047 119.831 52.4057 120.22 52.343L122.587 52.0212C122.944 52.0212 123.366 52.1955 123.484 52.3095L128.112 56.7415C129.236 57.821 131.133 58.2066 132.8 57.3785L136.368 55.3703C137.732 54.4987 138.392 52.7219 137.9 51.2434L135.928 45.3195C135.876 44.9513 135.975 44.5781 136.207 44.2768L137.564 42.5503C137.804 42.2976 138.132 42.1336 138.489 42.0876L145.134 42.148C145.954 42.1276 146.75 41.879 147.419 41.4337C148.088 40.9885 148.602 40.3666 148.894 39.647C148.894 39.647 149.187 38.8659 149.509 37.669C149.83 36.4722 149.966 35.6541 149.966 35.6541C150.072 34.884 149.93 34.1018 149.558 33.4081C149.186 32.7144 148.602 32.141 147.88 31.7619L142.02 28.8787C141.706 28.6552 141.494 28.3281 141.428 27.9634L141.099 25.8413C141.078 25.505 141.184 25.1725 141.399 24.9026L146.12 20.5577C147.302 19.4715 147.612 17.6142 146.798 16.1558L144.659 12.8033C143.756 11.5595 141.803 10.9158 140.263 11.3651L133.746 13.2358C133.42 13.2354 133.103 13.1379 132.839 12.9575L131 11.6836C130.733 11.4573 130.558 11.15 130.508 10.8153L130.572 4.60637C130.558 3.83043 130.297 3.07616 129.822 2.44092C129.347 1.80569 128.681 1.31864 127.908 1.04264C127.908 1.04264 127.076 0.767729 125.801 0.466001C124.526 0.164274 123.655 0.0368778 123.655 0.0368778C123.47 0.0195843 123.284 0.00728661 123.098 0C122.366 0.00856303 121.649 0.197664 121.019 0.548351C120.389 0.899038 119.868 1.39899 119.509 1.99811L116.438 7.49961C116.2 7.79449 115.852 7.99343 115.463 8.05612L113.096 8.37461C112.772 8.36804 112.459 8.26729 112.199 8.0863L107.571 3.65426C106.967 3.08922 106.184 2.72215 105.339 2.60742C104.495 2.49269 103.633 2.6364 102.883 3.01728L99.3118 5.02209C97.9477 5.89374 97.2871 7.67058 97.7799 9.14905L99.7511 15.073C99.8038 15.4412 99.7041 15.8143 99.4725 16.1156L98.1191 17.8422ZM101.047 19.7598L102.272 18.1975C103.229 17.1348 103.601 15.4015 103.158 14.0773L101.19 8.1567C101.172 8.06283 101.251 7.85162 101.233 7.84827L104.618 5.94403L105.022 6.00103L109.653 10.4331C110.475 11.2176 111.828 11.7271 113.099 11.7271C113.344 11.7308 113.588 11.7094 113.828 11.6634L115.881 11.3785C116.652 11.2906 117.391 11.0345 118.038 10.6304C118.684 10.2264 119.221 9.68575 119.606 9.05183L122.673 3.55368C122.783 3.43741 122.936 3.3644 123.101 3.34918C123.141 3.35253 123.869 3.46651 124.933 3.7146C125.994 3.96604 126.694 4.19066 126.726 4.20407C126.837 4.24765 126.997 4.46557 127.005 4.57285L126.94 10.7817C126.926 12.1697 127.815 13.7286 128.965 14.4326L130.625 15.5826C131.729 16.4576 133.622 16.8263 135.014 16.414L141.349 14.5634C141.499 14.5634 141.667 14.6505 141.645 14.607L143.674 17.7852C143.713 17.8723 143.674 18.0936 143.613 18.164L138.892 22.5122C137.839 23.4878 137.292 25.1775 137.582 26.4313L137.882 28.359C138.01 29.7403 139.053 31.212 140.363 31.8557L146.22 34.7355C146.343 34.84 146.42 34.9832 146.438 35.1378C146.333 35.7159 146.203 36.2896 146.048 36.8577C145.9 37.4254 145.726 37.9869 145.527 38.5407C145.481 38.6446 145.249 38.7955 145.134 38.8022L138.485 38.7418C137.017 38.7418 135.375 39.5766 134.632 40.6427L133.411 42.2016C132.929 42.7747 132.597 43.4465 132.443 44.1624C132.29 44.8782 132.318 45.6181 132.525 46.3219L134.493 52.2424C134.511 52.333 134.432 52.5475 134.45 52.5509L131.065 54.4551L130.661 54.3981L126.03 49.9661C125.208 49.1816 123.855 48.672 122.584 48.672C122.339 48.6684 122.095 48.6897 121.855 48.7357L119.802 49.0207C119.031 49.1085 118.292 49.3647 117.645 49.7687C116.999 50.1728 116.462 50.7134 116.077 51.3473L113.01 56.8455C112.9 56.9617 112.747 57.0347 112.581 57.05C111.966 56.9517 111.355 56.8298 110.75 56.6845C110.145 56.5455 109.547 56.3822 108.957 56.1951C108.846 56.1515 108.686 55.9336 108.678 55.8263L108.743 49.6174C108.757 48.2295 107.868 46.6705 106.718 45.9665L105.057 44.8166C104.446 44.3637 103.73 44.0524 102.967 43.9079C102.204 43.7635 101.415 43.7899 100.665 43.9852L94.3304 45.8358C94.1768 45.8358 94.009 45.7587 94.034 45.7922L92.0057 42.614C91.9664 42.5268 92.0057 42.3056 92.0664 42.2351L96.7872 37.8869C97.8406 36.9113 98.387 35.2217 98.0977 33.9678L97.7978 32.0435C97.7041 31.319 97.4308 30.6253 96.9998 30.018C96.5687 29.4108 95.992 28.9069 95.3159 28.5468L89.4596 25.667C89.3369 25.5625 89.2593 25.4193 89.2418 25.2647C89.2453 25.2278 89.3667 24.5439 89.631 23.5448C89.8988 22.5491 90.1381 21.892 90.1524 21.8618C90.1988 21.7579 90.4309 21.607 90.5452 21.6003L97.1943 21.6607C98.6619 21.6607 100.305 20.8259 101.047 19.7598Z" fill="black" fill-opacity="0.15"/>
<path d="M117.841 40.2568C123.747 40.2568 128.554 35.7443 128.554 30.1992C128.554 24.6541 123.747 20.1416 117.841 20.1416C111.935 20.1416 107.128 24.6541 107.128 30.1992C107.128 35.7443 111.935 40.2568 117.841 40.2568ZM117.841 23.4941C121.78 23.4941 124.983 26.5013 124.983 30.1992C124.983 33.897 121.78 36.9042 117.841 36.9042C113.902 36.9042 110.699 33.897 110.699 30.1992C110.699 26.5013 113.902 23.4941 117.841 23.4941Z" fill="black" fill-opacity="0.15"/>
</svg>
