<svg width="150" height="150" viewBox="0 0 150 150" fill="none" xmlns="http://www.w3.org/2000/svg">
<path d="M63.9996 106.853C60.2729 106.441 56.6074 105.596 53.0776 104.335C53.1851 101.807 53.2496 99.1709 53.2496 96.4281V95.5709V92.8173C56.5821 94.403 60.2049 95.5066 63.9996 96.0531V69.6421C63.9996 65.3796 65.6985 61.2917 68.7225 58.2777C71.7466 55.2637 75.848 53.5705 80.1247 53.5705H106.624C105.766 47.6335 103.493 41.9881 99.9933 37.1081C96.4941 32.228 91.8715 28.2558 86.5134 25.5248C81.1553 22.7937 75.218 21.3835 69.2 21.4125C63.1819 21.4416 57.2587 22.909 51.9273 25.6916C51.077 22.1873 49.6766 18.8388 47.7778 15.7701C54.7467 12.3032 62.4525 10.5647 70.2401 10.7024C78.0277 10.8401 85.6667 12.85 92.5079 16.5611C99.349 20.2722 105.19 25.5749 109.534 32.0183C113.878 38.4617 116.597 45.8552 117.46 53.5705H133.875C138.151 53.5705 142.253 55.2637 145.277 58.2777C148.301 61.2917 150 65.3796 150 69.6421V123.214C150 127.477 148.301 131.564 145.277 134.578C142.253 137.592 138.151 139.286 133.875 139.286H80.1247C75.848 139.286 71.7466 137.592 68.7225 134.578C65.6985 131.564 63.9996 127.477 63.9996 123.214V106.853ZM117.46 64.2849C116.238 75.1557 111.346 85.2899 103.585 93.0248C95.8245 100.76 85.6566 105.636 74.7497 106.853V123.214C74.7497 124.635 75.316 125.997 76.324 127.002C77.332 128.007 78.6991 128.571 80.1247 128.571H133.875C135.3 128.571 136.668 128.007 137.676 127.002C138.684 125.997 139.25 124.635 139.25 123.214V69.6421C139.25 68.2213 138.684 66.8586 137.676 65.854C136.668 64.8493 135.3 64.2849 133.875 64.2849H117.46ZM106.624 64.2849H80.1247C78.6991 64.2849 77.332 64.8493 76.324 65.854C75.316 66.8586 74.7497 68.2213 74.7497 69.6421V96.0531C82.7904 94.8947 90.2395 91.1748 95.9843 85.4491C101.729 79.7234 105.461 72.299 106.624 64.2849Z" fill="black" fill-opacity="0.1"/>
<path d="M40.7964 70.2956C39.6676 66.1599 37.8401 62.0134 34.7011 58.8312C39.7751 54.0419 43.0001 46.4132 43.0001 37.4988C43.0001 30.0309 41.4844 24.8987 38.7431 20.7951C37.5268 19.0301 36.121 17.4027 34.5506 15.9415C33.9488 15.3623 33.3395 14.7909 32.7231 14.2272C32.0674 13.6165 31.4654 13.0593 30.6806 12.2772C29.0681 10.67 28.8853 9.38427 28.8853 8.70926C28.8871 8.33406 28.9488 7.96154 29.0681 7.60568C29.5596 6.5463 29.6905 5.35593 29.441 4.21558C29.1914 3.07524 28.5751 2.04732 27.6856 1.28814C26.7961 0.528968 25.6823 0.0800792 24.5133 0.00974078C23.3444 -0.0605977 22.1845 0.251463 21.2098 0.898465L21.1883 0.90918L21.1561 0.930609L21.0593 0.994896L20.7368 1.20918C19.1243 2.35553 17.5707 3.58209 16.0821 4.88422C13.3945 7.2521 9.89003 10.7557 7.40677 14.9343C5.23903 18.3986 3.49925 22.1113 2.22526 25.9916C0.935253 29.838 0 34.0059 0 37.4988C0 46.4132 3.22501 54.0312 8.29903 58.8419C5.16002 62.0134 3.33251 66.1599 2.20376 70.3063C4.80564e-07 78.3635 0 88.3279 0 96.0316V96.428C0 118.478 4.13876 131.571 8.82578 139.361C11.18 143.261 13.631 145.779 15.6843 147.364C16.7784 148.215 17.9691 148.934 19.2318 149.507C19.9621 149.773 20.7251 149.939 21.5001 150C22.4031 150 23.7683 149.507 23.7683 149.507C25.0311 148.934 26.2218 148.215 27.3158 147.364C29.3583 145.779 31.8309 143.261 34.1744 139.361C38.8614 131.582 43.0001 118.478 43.0001 96.428V96.0423C43.0001 88.3279 43.0001 78.3743 40.7964 70.2956ZM15.9853 66.3313C17.2001 65.1098 18.8233 64.2848 21.5001 64.2848C24.1876 64.2848 25.8001 65.1206 27.0148 66.3206C28.3693 67.6813 29.5411 69.8885 30.4226 73.1135C32.2071 79.66 32.2501 88.2529 32.2501 96.428C32.2501 117.235 28.3263 128.25 24.9508 133.853C23.6608 135.996 22.4461 137.378 21.5001 138.246C20.1484 136.951 18.9867 135.472 18.0493 133.853C14.6738 128.239 10.75 117.235 10.75 96.428C10.75 88.2529 10.793 79.66 12.5775 73.1135C13.459 69.8992 14.6308 67.6813 15.9853 66.3206V66.3313ZM21.5001 53.5704C17.3613 53.5704 10.75 48.9847 10.75 37.4988C10.75 35.6453 11.309 32.7095 12.427 29.388C13.4459 26.2523 14.8505 23.2545 16.6088 20.463C17.5441 18.8879 18.7588 17.3558 20.0703 15.9522C20.8121 17.2593 21.7903 18.5772 23.0803 19.8629C23.8651 20.6451 24.8863 21.588 25.7571 22.4023L27.0901 23.6451C28.2188 24.738 29.0896 25.6916 29.7883 26.7523C31.0783 28.6702 32.2501 31.5738 32.2501 37.4988C32.2501 48.9847 25.6388 53.5704 21.5001 53.5704Z" fill="black" fill-opacity="0.1"/>
</svg>
