<svg width="150" height="150" viewBox="0 0 150 150" fill="none" xmlns="http://www.w3.org/2000/svg">
<path d="M129.053 47.0674C128.076 46.8719 127.344 46.7742 126.855 46.7742C123.242 46.7742 120.117 47.9961 117.48 50.4399C111.523 47.8006 105.957 45.65 100.781 43.9883C92.2852 41.2512 83.3984 39.0029 74.1211 37.2434C73.2422 34.8974 71.9238 32.9423 70.166 31.3783C72.6074 19.8436 75.8789 9.38416 79.9805 0C92.2852 0.879765 103.589 4.4477 113.892 10.7038C124.194 16.9599 132.52 25.1711 138.867 35.3372C135.254 39.2473 131.982 43.1574 129.053 47.0674ZM61.084 28.0059C58.5449 28.0059 56.1523 28.6901 53.9062 30.0586C45.9961 24.1935 38.0371 19.2082 30.0293 15.1026C42.1387 5.91398 55.7129 0.879765 70.752 0C66.9434 8.5044 63.8672 17.8397 61.5234 28.0059H61.084ZM10.2539 37.0968C13.5742 31.5249 17.7734 26.2463 22.8516 21.261C29.4922 24.6823 36.377 28.8856 43.5059 33.871C30.9082 33.5777 19.8242 34.653 10.2539 37.0968ZM47.0215 42.9619C47.2168 45.9922 48.2666 48.6559 50.1709 50.9531C52.0752 53.2502 54.4434 54.7898 57.2754 55.5718C56.6895 62.4145 56.3965 68.915 56.3965 75.0733C56.3965 79.3744 56.543 84.3108 56.8359 89.8827C54.6875 90.567 52.7832 91.74 51.123 93.4018C45.8496 91.349 40.7715 89.0029 35.8887 86.3636C36.9629 84.2131 37.5 82.0137 37.5 79.7654C37.5 75.8553 36.1328 72.5318 33.3984 69.7947C30.6641 67.0577 27.3438 65.6891 23.4375 65.6891C19.1406 65.6891 15.5762 67.3509 12.7441 70.6745C8.64258 66.9599 4.98047 63.0987 1.75781 59.0909C2.63672 54.8876 3.95508 50.7331 5.71289 46.6276C17.627 43.304 31.3965 42.0821 47.0215 42.9619ZM9.52148 80.9384C9.81445 84.5552 11.3037 87.61 13.9893 90.1026C16.6748 92.5953 19.8242 93.8416 23.4375 93.8416C24.5117 93.8416 25.6836 93.6461 26.9531 93.2551C33.2031 96.8719 39.8926 100 47.0215 102.639V103.226C47.0215 107.038 48.3154 110.288 50.9033 112.977C53.4912 115.665 56.6895 117.107 60.498 117.302C62.9395 129.228 66.3574 140.127 70.752 150C60.9863 149.413 51.7578 147.043 43.0664 142.889C34.375 138.734 26.8799 133.333 20.5811 126.686C14.2822 120.039 9.27734 112.219 5.56641 103.226C1.85547 94.2326 0 84.8485 0 75.0733C0 74.9756 0.0488281 73.6559 0.146484 71.1144C2.88086 74.5357 6.00586 77.8104 9.52148 80.9384ZM73.3887 109.824C80.4199 111.095 87.5 111.926 94.6289 112.317C95.3125 114.272 96.3867 116.08 97.8516 117.742C95.6055 128.006 94.2383 137.977 93.75 147.654C88.7695 148.925 84.1797 149.707 79.9805 150C75.3906 139.541 71.8262 127.713 69.2871 114.516C71.0449 113.343 72.4121 111.779 73.3887 109.824ZM118.799 116.862C120.068 115.298 120.947 113.636 121.436 111.877C128.564 111.29 135.449 110.362 142.09 109.091C137.402 118.28 130.957 126.246 122.754 132.991C121.875 127.908 120.557 122.532 118.799 116.862ZM94.9219 102.933C88.0859 102.542 81.3477 101.662 74.707 100.293C73.6328 95.4057 70.8496 92.0332 66.3574 90.1759C65.9668 84.4086 65.7715 79.3744 65.7715 75.0733C65.7715 68.6217 66.0645 61.9257 66.6504 54.9853C66.8457 54.9853 67.0898 54.8876 67.3828 54.6921C67.6758 54.4966 67.8711 54.3988 67.9688 54.3988C71.7773 58.1134 75.0977 61.5347 77.9297 64.6628C86.4258 74.0469 93.6523 84.7019 99.6094 96.6276C97.4609 98.2893 95.8984 100.391 94.9219 102.933ZM107.959 121.994C108.154 121.994 108.691 121.945 109.57 121.848C111.23 127.81 112.451 133.724 113.232 139.589C110.4 141.251 106.982 142.913 102.979 144.575C103.662 136.95 104.834 129.374 106.494 121.848C107.275 121.945 107.764 121.994 107.959 121.994ZM107.227 86.9501C107.129 87.1456 107.007 87.4389 106.86 87.8299C106.714 88.2209 106.592 88.5142 106.494 88.7097C100.342 77.566 93.1152 67.4487 84.8145 58.3578C81.7871 54.9365 78.1738 51.2219 73.9746 47.2141C74.0723 47.2141 74.1455 47.1408 74.1943 46.9941L74.2676 46.7742C82.4707 48.436 90.332 50.4888 97.8516 52.9325C102.441 54.3988 107.471 56.3539 112.939 58.7977C112.744 59.7752 112.646 60.5083 112.646 60.9971C112.646 63.9296 113.525 66.6178 115.283 69.0616C112.061 75.2199 109.375 81.1828 107.227 86.9501ZM114.111 95.4545C115.283 92.0332 115.869 90.2737 115.869 90.1759C117.822 85.2884 120.264 80.0586 123.193 74.4868C124.463 74.8778 125.684 75.0733 126.855 75.0733C130.176 75.0733 133.154 73.9492 135.791 71.7009C140.576 75.0244 145.264 78.739 149.854 82.8446C149.268 88.4164 148.096 93.7928 146.338 98.9736C138.33 100.635 129.883 101.808 120.996 102.493C119.727 99.3646 117.432 97.0186 114.111 95.4545ZM140.918 60.8504C140.918 57.6246 139.844 54.6921 137.695 52.0528C139.746 49.4135 141.797 47.0186 143.848 44.868C147.363 52.8837 149.414 61.1437 150 69.6481C146.777 67.2043 143.652 65.0049 140.625 63.0499C140.82 62.1701 140.918 61.4369 140.918 60.8504Z" fill="black" fill-opacity="0.1"/>
</svg>
